<svg xmlns="http://www.w3.org/2000/svg" viewBox="0 0 500 500"><g id="freepik--background-complete--inject-5"><polygon points="47.48 186.42 98.11 186.17 148.74 186.08 250 185.92 351.26 186.08 401.89 186.17 452.52 186.42 401.89 186.66 351.26 186.75 250 186.91 148.74 186.75 98.11 186.66 47.48 186.42" style="fill:#ebebeb"></polygon><polygon points="47.48 221 98.11 220.76 148.74 220.67 250 220.5 351.26 220.67 401.89 220.75 452.52 221 401.89 221.25 351.26 221.33 250 221.5 148.74 221.33 98.11 221.24 47.48 221" style="fill:#ebebeb"></polygon><polygon points="47.48 255.58 98.11 255.34 148.74 255.25 250 255.09 351.26 255.25 401.89 255.34 452.52 255.58 401.89 255.83 351.26 255.92 250 256.08 148.74 255.92 98.11 255.83 47.48 255.58" style="fill:#ebebeb"></polygon><polygon points="47.48 290.17 98.11 289.93 148.74 289.84 250 289.67 351.26 289.84 401.89 289.92 452.52 290.17 401.89 290.41 351.26 290.5 250 290.67 148.74 290.5 98.11 290.41 47.48 290.17" style="fill:#ebebeb"></polygon><polygon points="47.48 82.66 98.11 82.42 148.74 82.33 250 82.16 351.26 82.33 401.89 82.42 452.52 82.66 401.89 82.91 351.26 83 250 83.16 148.74 82.99 98.11 82.91 47.48 82.66" style="fill:#ebebeb"></polygon><polygon points="47.48 117.25 98.11 117 148.74 116.92 250 116.75 351.26 116.92 401.89 117 452.52 117.25 401.89 117.49 351.26 117.58 250 117.75 148.74 117.58 98.11 117.49 47.48 117.25" style="fill:#ebebeb"></polygon><polygon points="47.48 151.83 98.11 151.59 148.74 151.5 250 151.33 351.26 151.5 401.89 151.59 452.52 151.83 401.89 152.08 351.26 152.16 250 152.33 148.74 152.16 98.11 152.07 47.48 151.83" style="fill:#ebebeb"></polygon><polygon points="47.48 324.75 98.11 324.51 148.74 324.42 250 324.25 351.26 324.42 401.89 324.51 452.52 324.75 401.89 325 351.26 325.08 250 325.25 148.74 325.08 98.11 325 47.48 324.75" style="fill:#ebebeb"></polygon><polygon points="47.48 359.34 98.11 359.09 148.74 359.01 250 358.84 351.26 359 401.89 359.09 452.52 359.34 401.89 359.58 351.26 359.67 250 359.84 148.74 359.67 98.11 359.58 47.48 359.34" style="fill:#ebebeb"></polygon><polygon points="284.58 54.48 284.83 100.61 284.92 146.74 285.08 239 284.92 331.26 284.83 377.39 284.58 402.52 284.34 377.39 284.25 331.26 284.08 239 284.25 146.74 284.34 100.61 284.58 54.48" style="fill:#ebebeb"></polygon><polygon points="250 54.48 250.24 100.61 250.33 146.74 250.5 239 250.33 331.26 250.25 377.39 250 402.52 249.75 377.39 249.67 331.26 249.5 239 249.67 146.74 249.76 100.61 250 54.48" style="fill:#ebebeb"></polygon><polygon points="215.42 54.48 215.66 100.61 215.75 146.74 215.91 239 215.75 331.26 215.66 377.39 215.42 402.52 215.17 377.39 215.08 331.26 214.92 239 215.08 146.74 215.17 100.61 215.42 54.48" style="fill:#ebebeb"></polygon><polygon points="180.83 54.48 181.07 100.61 181.16 146.74 181.33 239 181.16 331.26 181.08 377.39 180.83 402.52 180.59 377.39 180.5 331.26 180.33 239 180.5 146.74 180.59 100.61 180.83 54.48" style="fill:#ebebeb"></polygon><polygon points="388.34 54.48 388.58 100.61 388.67 146.74 388.84 239 388.67 331.26 388.58 377.39 388.34 402.52 388.09 377.39 388 331.26 387.84 239 388.01 146.74 388.09 100.61 388.34 54.48" style="fill:#ebebeb"></polygon><polygon points="353.75 54.48 354 100.61 354.08 146.74 354.25 239 354.08 331.26 354 377.39 353.75 402.52 353.51 377.39 353.42 331.26 353.25 239 353.42 146.74 353.51 100.61 353.75 54.48" style="fill:#ebebeb"></polygon><polygon points="319.17 54.48 319.41 100.61 319.5 146.74 319.67 239 319.5 331.26 319.41 377.39 319.17 402.52 318.92 377.39 318.84 331.26 318.67 239 318.84 146.74 318.93 100.61 319.17 54.48" style="fill:#ebebeb"></polygon><polygon points="422.92 54.48 423.16 100.61 423.25 146.74 423.42 239 423.25 331.26 423.17 377.39 422.92 402.52 422.68 377.39 422.59 331.26 422.42 239 422.59 146.74 422.68 100.61 422.92 54.48" style="fill:#ebebeb"></polygon><polygon points="388.34 54.48 388.58 100.61 388.67 146.74 388.84 239 388.67 331.26 388.58 377.39 388.34 402.52 388.09 377.39 388 331.26 387.84 239 388.01 146.74 388.09 100.61 388.34 54.48" style="fill:#ebebeb"></polygon><polygon points="146.25 54.48 146.49 100.61 146.58 146.74 146.75 239 146.58 331.26 146.49 377.39 146.25 402.52 146 377.39 145.91 331.26 145.75 239 145.92 146.74 146 100.61 146.25 54.48" style="fill:#ebebeb"></polygon><polygon points="111.66 54.48 111.91 100.61 111.99 146.74 112.16 239 112 331.26 111.91 377.39 111.66 402.52 111.42 377.39 111.33 331.26 111.16 239 111.33 146.74 111.42 100.61 111.66 54.48" style="fill:#ebebeb"></polygon><polygon points="77.08 54.48 77.32 100.61 77.41 146.74 77.58 239 77.41 331.26 77.32 377.39 77.08 402.52 76.83 377.39 76.75 331.26 76.58 239 76.75 146.74 76.84 100.61 77.08 54.48" style="fill:#ebebeb"></polygon><rect x="231.65" y="223.32" width="202.48" height="7.85" transform="translate(665.79 454.48) rotate(180)" style="fill:#ebebeb"></rect><polygon points="404.38 231.02 404.38 273.9 415.35 273.9 418.4 241.21 419.35 231.02 404.38 231.02" style="fill:#ebebeb"></polygon><polygon points="419.35 231.02 404.38 231.02 404.38 241.21 418.4 241.21 419.35 231.02" style="fill:#dbdbdb"></polygon><polygon points="246.44 231.02 247.39 241.21 250.44 273.9 261.41 273.9 261.41 231.02 246.44 231.02" style="fill:#ebebeb"></polygon><polygon points="246.44 231.02 247.39 241.21 261.41 241.21 261.41 231.02 246.44 231.02" style="fill:#dbdbdb"></polygon><rect x="296.23" y="196.45" width="50.73" height="1" transform="matrix(0.19, -0.98, 0.98, 0.19, 65.88, 474.12)" style="fill:#ebebeb"></rect><rect x="318.08" y="171.01" width="1" height="52.9" transform="translate(-36.09 76.25) rotate(-12.92)" style="fill:#ebebeb"></rect><rect x="314.17" y="171.57" width="1" height="52.83" transform="translate(-44.23 101) rotate(-17.05)" style="fill:#ebebeb"></rect><rect x="292.74" y="197.31" width="50.39" height="1" transform="translate(33.62 441.48) rotate(-72.49)" style="fill:#ebebeb"></rect><rect x="291.3" y="196.35" width="51.04" height="1" transform="translate(112.91 509.17) rotate(-88.71)" style="fill:#ebebeb"></rect><polygon points="308.69 223.64 326.52 223.64 322.99 201.31 312.23 201.31 308.69 223.64" style="fill:#c7c7c7"></polygon><rect x="376.17" y="176.26" width="32.07" height="47.39" transform="translate(784.41 399.9) rotate(180)" style="fill:#dbdbdb"></rect><rect x="385.66" y="166.68" width="13.08" height="9.58" transform="translate(784.41 342.94) rotate(180)" style="fill:#ebebeb"></rect><rect x="380.75" y="188.28" width="23.03" height="22.03" transform="translate(784.52 398.58) rotate(180)" style="fill:#ebebeb"></rect><rect x="346.33" y="170.08" width="27.49" height="53.56" transform="translate(720.15 393.72) rotate(180)" style="fill:#dbdbdb"></rect><rect x="354.47" y="161.87" width="11.21" height="8.21" transform="translate(720.15 331.95) rotate(180)" style="fill:#c7c7c7"></rect><rect x="346.33" y="190.51" width="27.49" height="18.89" transform="translate(720.15 399.9) rotate(180)" style="fill:#c7c7c7"></rect><rect x="324.05" y="54.02" width="105.16" height="75.91" style="fill:#ebebeb"></rect><rect x="333.97" y="63.95" width="85.31" height="56.06" style="fill:#fff"></rect><rect x="333.97" y="63.95" width="85.31" height="56.06" style="fill:#fff"></rect><rect x="333.97" y="63.94" width="85.31" height="56.06" style="fill:#fff"></rect><g style="opacity:0.2"><polygon points="382.98 63.94 333.97 112.95 333.97 95.34 365.37 63.94 382.98 63.94" style="fill:#ebebeb"></polygon><polygon points="419.28 84.26 419.28 90.06 389.33 120.01 383.52 120.01 419.28 84.26" style="fill:#ebebeb"></polygon><polygon points="351.82 63.94 333.97 81.79 333.97 79.85 349.88 63.94 351.82 63.94" style="fill:#ebebeb"></polygon><polygon points="419.28 102.49 419.28 104.43 403.7 120.01 401.76 120.01 419.28 102.49" style="fill:#ebebeb"></polygon><polygon points="418.8 63.94 362.74 120.01 360.8 120.01 416.87 63.94 418.8 63.94" style="fill:#ebebeb"></polygon></g><rect x="197.42" y="54.02" width="105.16" height="75.91" style="fill:#ebebeb"></rect><rect x="207.35" y="63.95" width="85.31" height="56.06" style="fill:#fff"></rect><rect x="207.35" y="63.94" width="85.31" height="56.06" style="fill:#fff"></rect><g style="opacity:0.2"><polygon points="292.66 71.14 292.66 88.75 261.4 120.01 243.79 120.01 292.66 71.14" style="fill:#ebebeb"></polygon><polygon points="247.22 63.94 207.35 103.83 207.35 98.02 241.43 63.94 247.22 63.94" style="fill:#ebebeb"></polygon><polygon points="222.77 63.94 207.35 79.37 207.35 77.44 220.84 63.94 222.77 63.94" style="fill:#ebebeb"></polygon><polygon points="292.66 100.07 292.66 102.01 274.66 120.01 272.72 120.01 292.66 100.07" style="fill:#ebebeb"></polygon><polygon points="259.38 63.94 207.35 115.97 207.35 114.03 257.44 63.94 259.38 63.94" style="fill:#ebebeb"></polygon></g><rect x="70.8" y="54.02" width="105.16" height="75.91" style="fill:#ebebeb"></rect><rect x="80.72" y="63.95" width="85.31" height="56.06" style="fill:#fff"></rect><g style="opacity:0.2"><polygon points="142.35 63.94 86.29 120.01 80.72 120.01 80.72 107.96 124.74 63.94 142.35 63.94" style="fill:#ebebeb"></polygon><polygon points="166.03 89.92 166.03 107.55 153.57 120.01 135.95 120.01 166.03 89.92" style="fill:#ebebeb"></polygon><polygon points="91.72 63.94 80.72 74.94 80.72 69.15 85.93 63.94 91.72 63.94" style="fill:#ebebeb"></polygon><polygon points="166.03 70 166.03 71.94 117.96 120.01 116.02 120.01 166.03 70" style="fill:#ebebeb"></polygon><polygon points="118.89 63.94 80.72 102.11 80.72 100.17 116.95 63.94 118.89 63.94" style="fill:#ebebeb"></polygon></g></g><g id="freepik--Shadows--inject-5"><ellipse cx="362.62" cy="445.7" rx="89.9" ry="15.95" style="fill:#ebebeb"></ellipse><ellipse cx="124.16" cy="432.06" rx="89.9" ry="15.95" style="fill:#ebebeb"></ellipse></g><g id="freepik--Character--inject-5"><rect x="292.5" y="258.44" width="82.93" height="38.97" style="fill:#D5A9CF"></rect><rect x="292.5" y="243.05" width="82.93" height="10.33" style="fill:#263238"></rect><rect x="300.44" y="253.38" width="67.06" height="5.06" style="fill:#D5A9CF"></rect><path d="M292.5,289.31V276.26S303,265.72,317.57,265.7c17.13,0,26.61,12.72,39.58,15.54a27.71,27.71,0,0,0,18.29-2.34v5.67a36.85,36.85,0,0,1-20.61,4.74c-14.73-.92-24.5-6.68-35.8-7.28C304.81,281.28,292.5,289.31,292.5,289.31Z" style="fill:#ebebeb"></path><path d="M292.5,292a25.62,25.62,0,0,1,4.48-3,40.69,40.69,0,0,1,4.94-2.25,46.63,46.63,0,0,1,10.57-2.57,42.09,42.09,0,0,1,10.93,0,71.74,71.74,0,0,1,10.63,2.38c6.89,2.05,13.63,4.47,20.67,4.69a53.65,53.65,0,0,0,10.58-.72,34.13,34.13,0,0,0,10.14-3.24,23.22,23.22,0,0,1-4.78,2.52,41.45,41.45,0,0,1-5.16,1.68,48.41,48.41,0,0,1-10.79,1.32,44.73,44.73,0,0,1-10.84-1.38c-3.53-.86-7-2-10.39-2.95a73.21,73.21,0,0,0-10.32-2.43,44,44,0,0,0-10.51-.3,51.45,51.45,0,0,0-10.42,1.94A36.27,36.27,0,0,0,292.5,292Z" style="fill:#ebebeb"></path><path d="M292.5,272.14c5.2-5.44,12.46-8.77,19.93-10.06a29.29,29.29,0,0,1,11.46.17,48.89,48.89,0,0,1,10.74,3.84c6.85,3.23,13.06,7.5,19.8,10.41a29.35,29.35,0,0,0,5.17,1.66,23.34,23.34,0,0,0,5.38.41,28.47,28.47,0,0,0,5.46-.54,10.54,10.54,0,0,0,5-2.19,6.48,6.48,0,0,1-2.16,1.83,15.35,15.35,0,0,1-2.62,1.16,23.4,23.4,0,0,1-5.6,1.13c-.48.06-.95.07-1.43.1a13.62,13.62,0,0,1-1.44,0,21.31,21.31,0,0,1-2.91-.3,29.62,29.62,0,0,1-5.53-1.64,88.47,88.47,0,0,1-10.13-5c-3.27-1.82-6.52-3.64-9.84-5.25a50.16,50.16,0,0,0-10.29-3.8,28.76,28.76,0,0,0-5.38-.72c-.9-.05-1.8,0-2.71,0l-2.73.26A42.89,42.89,0,0,0,302,266.46,34.84,34.84,0,0,0,292.5,272.14Z" style="fill:#ebebeb"></path><path d="M291.27,299.81c1.67-2.08,26.94,49.44,29.38,53.76s5.39,27.35,3.74,27.77-14.16-15.35-17.49-20S290.39,300.92,291.27,299.81Z" style="fill:#D5A9CF"></path><path d="M291.27,299.81c1.67-2.08,26.94,49.44,29.38,53.76s5.39,27.35,3.74,27.77-14.16-15.35-17.49-20S290.39,300.92,291.27,299.81Z" style="opacity:0.1"></path><path d="M190,268.5c5.56,34.38,38.22,107.88,58.52,112.22,25.37,5.44,84.27-26.29,99.74-38.31C355,337.16,319.71,285.09,312,290c-10.29,6.57-44.67,26-45.75,26.17-2.34.45-29.64-29.16-47.49-54.58C194.65,227.22,185.74,241.92,190,268.5Z" style="fill: rgb(119, 68, 66);"></path><path d="M334.27,350s22.17-11.83,36.3-20.25c7.89-4.7,20.69-14,24.9-20.07,6.31-9.12,26.84-51.32,16.72-56.52C403,248.47,390,287,390,287s16.59-37.68,4.52-41.32-21,41.81-21,41.81,16.18-39.09,3.13-40.87c-9.86-1.35-20.28,39.36-20.28,39.36s13.67-33.7,3.59-35.52c-11.14-2-23.11,35-23.11,35-26.4-.32-38.74,9.7-46.87,18.35C288,305.83,334.27,350,334.27,350Z" style="fill: rgb(119, 68, 66);"></path><path d="M385.08,300.37c2.11-4.36,4.27-8.75,6-13.28s3.27-9.12,4.56-13.79c3.15-11.45,3.33-19.11,3.27-18.63-1.49,11.16-7.37,27.46-9.09,32s-3.19,9.13-4.9,13.65C384.86,300.42,385,300.47,385.08,300.37Z" style="fill:#263238"></path><path d="M368.62,294.47c2.45-5.67,5.09-11.22,7.3-17s3.76-11.42,5.55-17.31c.14-.46-.15-.38-.31.07-2,5.82-4.34,11-6.43,16.84s-4,11.67-6.25,17.36C368.44,294.51,368.58,294.56,368.62,294.47Z" style="fill:#263238"></path><path d="M353.58,292c4.19-8.49,6.81-17.74,9.17-26.87.11-.46-.25-.32-.39.14-2.88,9-5.08,16.06-9.07,26.58C353.22,292,353.49,292.13,353.58,292Z" style="fill:#263238"></path><path d="M195.63,239.5c8.49-.45,26.56,18,31.69,23.07s36.8,49.43,39.13,49.1,24.6-15.31,24.82-11.86c1,14.74,19.8,62.07,23.4,67.4,4.87,7.2,10.66,13.14,9.72,14.13s-65,9.81-77.95,2.49-37.4-46.61-50.59-89.31S186.34,240,195.63,239.5Z" style="fill:#D5A9CF"></path><path d="M300.49,382.84c-1.85-1.55-3.62-3.2-5.41-4.81s-3.55-3.3-5.23-5a47.72,47.72,0,0,1-8.36-11.54,54.66,54.66,0,0,1-4.52-15c-1-5.44-1.56-11-2.34-16.43-.9-6.41-1.81-12.82-2.88-19.2,0-.11-.2-.08-.19,0,.48,5.87,1.11,11.73,1.73,17.59.6,5.63,1.16,11.29,2,16.9a57.06,57.06,0,0,0,4.16,15.35,45.92,45.92,0,0,0,8.17,11.92,63.47,63.47,0,0,0,6,5.7c2.11,1.75,4.34,3.3,6.58,4.88C300.43,383.38,300.7,383,300.49,382.84Z" style="fill:#263238"></path><path d="M267.74,311.2c-1,.62-2,1.22-3,1.85-7.24.69-12.84,6.27-17.37,11.48-1.46,1.68-2.82,3.44-4.26,5.13-.06.08.05.19.11.11a68,68,0,0,1,10.27-10.09,44.22,44.22,0,0,1,9.64-5.55c-.46.33-.92.67-1.36,1a38,38,0,0,0-5.15,5.16,62.67,62.67,0,0,0-8,13.33c-1.27,2.75-2.47,5.54-3.53,8.37-.1.27.31.41.44.18,2.54-4.64,4.83-9.41,7.56-13.95a66.54,66.54,0,0,1,8.6-11.62c1.06-1.12,2.17-2.26,3.35-3.28l.13-.05a.16.16,0,0,0,.09-.14,17,17,0,0,1,2.57-1.84A.08.08,0,1,0,267.74,311.2Z" style="fill:#263238"></path><path d="M243.86,402.74H94s13.63-104.54,61.9-159.51c13-14.83,36.64-10.44,47.82-.41a104.34,104.34,0,0,1,10.87,12.35c10.15,13,26.73,44.36,28.28,52.83,2.56,14-9.83,29.13-9.83,29.13Z" style="fill:#D5A9CF"></path><path d="M233.75,337.19c6.51-8.57,13.35-18.73,10.65-29.95C243,301.46,239.81,296.19,237,291c-3-5.46-6.11-10.82-9.32-16.14-.12-.19-.23-.38-.35-.56-.53-1.71-1.3-3.37-1.94-5-.83-2.11-1.72-4.2-2.54-6.32,0-.07-.15,0-.12,0,.67,2.2,1.34,4.4,2.14,6.56.21.56.41,1.12.62,1.69-1.08-1.77-2.17-3.54-3.29-5.29-1.91-3-3.92-5.89-5.83-8.87a.07.07,0,0,0-.12.07c3.06,5.23,6,10.53,9.06,15.76s6,10.5,8.89,15.84q2.13,4,4.11,8a67,67,0,0,1,3.44,7.81,25.16,25.16,0,0,1,.11,16c-1.84,5.91-5.88,11-9,16.27-.08.14.38,3.09.49,3.82l.6,4.05,1.23,8.21c.78,5.35,1.51,10.77,2.64,16.07.65,3.05,1.25,6.13,2,9.16,0,.13.24.09.23,0-1-10.9-3.15-21.67-5-32.46C234.83,344.19,234,338.06,233.75,337.19Z" style="fill:#263238"></path><path d="M232,299.81a84,84,0,0,0-9-7.84c-1.56-1.23-3.15-2.43-4.82-3.51s-3.54-2.11-5.33-3.12a57.54,57.54,0,0,1-9.66-6.65c-2.89-2.5-5.55-5.25-8.25-7.94s-5.37-5.21-8.23-7.62-5.68-4.64-8.55-6.9-5.8-4.57-8.58-7-5.32-4.91-7.82-7.53c-.66-.7-1.28-1.41-1.87-2.16-.1-.13-.31,0-.21.13,1,1.46,2,2.93,3.15,4.33a49,49,0,0,0,3.57,3.91c2.56,2.58,5.78,6.68,8.59,9,5.64,4.65,23.16,21.62,33.2,27.49,3.51,2.06,7.17,3.86,10.55,6.15a103.48,103.48,0,0,1,9.39,7.3c5.73,4.94,11.1,11,12.59,18.64.19.95.42,4.94.5,5.91a.09.09,0,0,0,.17,0C241.59,314.91,239.68,307.93,232,299.81Z" style="fill:#263238"></path><path d="M213.65,281.67c-.18-1.46-.41-2.93-.69-4.38-.59-3-1.39-6-2.25-9-1.71-5.94-3.84-11.75-5.91-17.58-1.15-3.24-2.13-6.58-3.43-9.77-.06-.14-.3-.13-.28,0a52,52,0,0,0,2.12,8.78c.91,3,1.9,5.93,2.91,8.87,2,5.83,6.84,26,7.17,27.72,0,.13.76,0,.76-.11A34.79,34.79,0,0,0,213.65,281.67Z" style="fill:#263238"></path><path d="M221.47,284.48c-.34-2.47-.7-5-1.18-7.41a130,130,0,0,0-3.86-14.91c-.88-2.76-2-5.42-3-8.15a.08.08,0,0,0-.16.05c.77,2.42,1.35,4.92,2,7.38s1.29,4.93,1.9,7.4c1.2,4.9,2.38,9.81,3.45,14.74.61,2.81,1,5.68,1.64,8.49,0,.06.12,0,.11,0C222.25,289.52,221.82,287,221.47,284.48Z" style="fill:#263238"></path><path d="M228.12,312.74c-4.81-5.85-11-10.29-17.46-14.19-6.91-4.19-14-8-20.58-12.75a177.81,177.81,0,0,1-18.4-15.95c-2.92-2.83-5.77-5.73-8.63-8.63a55.65,55.65,0,0,1-7.51-8.85,20.73,20.73,0,0,1-1.37-2.54c0-.08-.18,0-.14.06a36.67,36.67,0,0,0,6.07,9.29c2.6,3,5.38,5.84,8.14,8.69a177.25,177.25,0,0,0,17.86,16.35c3.16,2.46,6.43,4.77,9.81,6.9s6.88,4.12,10.33,6.14c6.65,3.89,13.32,7.93,18.73,13.47,4.83,4.94,8.87,11.14,10.1,18,.16.91.45,3.06.55,4a.13.13,0,0,0,.26,0C235.85,325.77,232.46,318,228.12,312.74Z" style="fill:#263238"></path><path d="M170.76,234.35c-6,1.14-11.44,5.61-11.44,5.61s49.85,46.28,53.62,45.77c2.07-.27-11.87-45-11.87-45A40.5,40.5,0,0,0,170.76,234.35Z" style="fill: rgb(119, 68, 66);"></path><path d="M170.94,238.94c.65,2.47,13,18.28,24.31,17.43,3.7-.28,3.06-20.52,3.06-20.52l.3-1.5,4.1-21.07-25-15.11-3.61-2s-.75,5.83-1.6,13.11c0,.34-.08.68-.12,1s-.12.8-.16,1.18c-.14,1.09-.28,2.2-.39,3.31-.1.84-.19,1.66-.25,2.55s-.16,1.75-.25,2.64C170.63,228.8,170.68,237.89,170.94,238.94Z" style="fill: rgb(119, 68, 66);"></path><path d="M172.47,209.29a43.09,43.09,0,0,0,26.14,25.06l4.1-21.07-25-15.11-3.61-2S173.32,202,172.47,209.29Z" style="fill:#263238"></path><path d="M233.87,177.36c6.07,37.18-15.51,45-23.53,46.32-7.28,1.18-32.22,4.28-42.1-32.08s5.48-50.93,22-54.51S227.79,140.18,233.87,177.36Z" style="fill: rgb(119, 68, 66);"></path><path d="M232.75,177.61c-1.55-7.82-5.22-19.57-8.67-21.9s-8.66-2.91-14.67-.42c-4.84,2-12.74-1-21.28,3.66-6.42,3.5-11.85,9-12.63,22-.32,5.43,1.16,18.39,4.83,24.85,4.6,8.1,12.72,15.19,26.26,15.19,10.32,0,19.46-6.85,23.5-14.48S233.9,183.4,232.75,177.61Zm-29.32,14.07c-6.93,1.88-14.19-3.33-14.58-9s5.43-13.47,10.63-14.3C208.17,167,212,177.16,212.07,181S210.36,189.79,203.43,191.68Zm27.43-14.07c-.23,3-3.71,8.8-8.66,8.31s-7.8-16.13-5.12-19.35C223,159.52,231.25,172.67,230.86,177.61Z" style="fill:#D5A9CF;opacity:0.6000000000000001"></path><path d="M222.64,170.58a24.69,24.69,0,0,1-2.59-.26,4.17,4.17,0,0,1-2.6-.76,1.33,1.33,0,0,1-.18-1.62,3.32,3.32,0,0,1,3.17-1.14,4.88,4.88,0,0,1,3.24,1.38A1.43,1.43,0,0,1,222.64,170.58Z" style="fill:#263238"></path><path d="M198.4,173.44a23.82,23.82,0,0,0,2.47-.82,4.18,4.18,0,0,0,2.36-1.31,1.35,1.35,0,0,0-.18-1.63,3.33,3.33,0,0,0-3.34-.41,4.91,4.91,0,0,0-2.86,2.06A1.43,1.43,0,0,0,198.4,173.44Z" style="fill:#263238"></path><path d="M205.34,202.54c.64.57,1.29,1.37,2.23,1.4a6.91,6.91,0,0,0,2.72-.78.09.09,0,0,1,.12.12,3.46,3.46,0,0,1-3.19,1.55,2.7,2.7,0,0,1-2.12-2.16C205.05,202.52,205.24,202.46,205.34,202.54Z" style="fill:#263238"></path><path d="M216.13,191.63s.94,3.78,1.13,5.58a9.76,9.76,0,0,1-9.77-1.9c-.16-.15.07-.37.25-.28a13,13,0,0,0,8.07,1.4c.08-.51-1.82-6.4-1.54-6.45a16,16,0,0,1,4.2.48c-1.73-7.91-4.71-15.48-6.32-23.38a.25.25,0,0,1,.46-.17c3.69,7.72,5.88,16.78,7.88,24.9C220.75,192.82,216.89,191.86,216.13,191.63Z" style="fill:#263238"></path><path d="M218.76,178.82c0-.1.21.09.22.19.2,2.47.85,5.26,3.16,5.82.07,0,.08.15,0,.14C219.38,184.9,218.56,181.19,218.76,178.82Z" style="fill:#263238"></path><path d="M223.82,179.43a2.73,2.73,0,0,0,.71.54,1.65,1.65,0,0,0,1.39.1c1.41-.51,1.66-2.16,1.38-3.66,0-.11-.08-.16-.13-.07-.42.9-.93,1.85-1.8,1.93a3.18,3.18,0,0,1-1.71-.66A8.05,8.05,0,0,1,223.82,179.43Z" style="fill:#263238"></path><path d="M219.06,182.07a3.91,3.91,0,0,0,1.08,1.74,2.81,2.81,0,0,0,2.14.64,2.53,2.53,0,0,0,1.85-1.3,4.46,4.46,0,0,0,.48-2,8.11,8.11,0,0,0-.08-1.21,5.27,5.27,0,0,0-.87-2.36,8.05,8.05,0,0,1,.16,1.82,10.88,10.88,0,0,1-.15,1.65c-.2,1.12-.71,2.09-1.57,2.15s-1.65-.5-2.15-1.52a19.27,19.27,0,0,1-1.14-3.34A8,8,0,0,0,219.06,182.07Z" style="fill:#263238"></path><path d="M204.71,181.37c0-.09-.16.15-.14.25.57,2.41.81,5.26-1.22,6.51-.06,0,0,.16.05.13C206,187.35,205.64,183.56,204.71,181.37Z" style="fill:#263238"></path><path d="M200.1,183.51a2.83,2.83,0,0,1-.52.72,1.64,1.64,0,0,1-1.29.53c-1.5,0-2.24-1.55-2.44-3.06,0-.11,0-.18.11-.1.67.73,1.45,1.47,2.3,1.28a3.13,3.13,0,0,0,1.42-1.16A8.19,8.19,0,0,0,200.1,183.51Z" style="fill:#263238"></path><path d="M205.43,184.55a3.92,3.92,0,0,1-.49,2,2.79,2.79,0,0,1-1.84,1.25,2.52,2.52,0,0,1-2.16-.66,4.43,4.43,0,0,1-1.06-1.72,7.15,7.15,0,0,1-.3-1.19,5.32,5.32,0,0,1,.1-2.51,8.19,8.19,0,0,0,.42,1.79,10.37,10.37,0,0,0,.65,1.52c.53,1,1.31,1.77,2.14,1.56s1.43-1,1.58-2.11a17.11,17.11,0,0,0,.06-3.52A7.83,7.83,0,0,1,205.43,184.55Z" style="fill:#263238"></path><path d="M171.64,192.07c4.9,1.69.3-17.19,5.27-25.64,6.07-10.31,27.55-10.34,33.51-23.86,0,0,3.36,7.27,8.28,9.71s10.17,6.05,11.61,10.7c0,0-3.09-20.74-19.89-25.23,0,0-23.11-9.31-39.66,9.31S163.8,189.36,171.64,192.07Z" style="fill:#263238"></path><path d="M174.61,192.23s-9.08-11.1-14.18-7.78,2.35,19.86,8.77,21.71a6.36,6.36,0,0,0,8.25-4.06Z" style="fill: rgb(119, 68, 66);"></path><path d="M162.68,189.14a.09.09,0,0,0,0,.17c4.52,1.44,7.13,5.33,9.06,9.42-1.42-1.53-3.26-2.28-5.32-.57-.11.09,0,.26.14.23a3.91,3.91,0,0,1,4.4,1,18.29,18.29,0,0,1,2.32,3.32c.24.38.93.11.75-.33l0-.09C173.65,196.73,168.72,189.25,162.68,189.14Z" style="fill:#263238"></path><path d="M174.19,206.52c-3.68-2.76-5.77-7.68-5.95-14.92s3.63-26.58,13.09-32.73,21.61-11.47,26.43-19.46c0,0,8.73,8.55,14.44,12s10,18.7,11.67,26a28.27,28.27,0,0,0,1.06-9.09c-.24-5.08,1.25-5.58,1.42-9.24s-6.15-14.46-7.15-15.29-1.83-15.63-19.79-19.46c0,0-27.84-16.07-40.48-8.31s-26.54,20.95-28.78,27.27c-1.85,5.23,2.24,6.93,2.24,6.93s-5.75,23.21-4.68,31.67S148.84,195,148.84,195s6.51,9.49,11.76,11.55S174.19,206.52,174.19,206.52Z" style="fill:#dbdbdb"></path><path d="M161.77,149.11c-1,1.43-2.12,2.82-3.17,4.23s-1.92,2.75-2.9,4.1c-2,2.68-3.83,5.48-5.68,8.25-1.69,2.55-3.63,5.11-4.44,8.11s0,6.29.61,9.39c.69,3.73,1.47,7.45,2.4,11.13,0,.09.18.07.17,0-.33-3.28-.82-6.54-1.16-9.82-.16-1.59-.43-3.17-.56-4.77a16.25,16.25,0,0,1,.09-4.62c.61-2.92,2.49-5.42,4.07-7.88,1.75-2.73,3.46-5.49,5.17-8.25,2-3.18,3.79-6.45,5.69-9.68C162.17,149.08,161.89,148.94,161.77,149.11Z" style="fill:#a6a6a6"></path><path d="M172.26,121.28c-2.52,1.1-5,2.41-7.38,3.71a71.14,71.14,0,0,0-7,4.25,39,39,0,0,0-11.16,12.28c-.83,1.4-1.6,2.83-2.35,4.27a41,41,0,0,0-2.06,4.21c0,.1.12.19.19.1.82-1,1.49-2.25,2.2-3.37s1.55-2.36,2.34-3.52a75,75,0,0,1,5-6.5,59.67,59.67,0,0,1,12.44-10.46c2.56-1.69,5.25-3.16,7.81-4.84C172.39,121.37,172.34,121.24,172.26,121.28Z" style="fill:#a6a6a6"></path><path d="M212,124.86a38.8,38.8,0,0,0-5.8-1.47c-1.92-.37-3.82-.77-5.77-1a56.83,56.83,0,0,0-11.59,0,28,28,0,0,0-10.64,3.25,72.91,72.91,0,0,0-9.56,6.87c-1.77,1.41-3.51,2.85-5.24,4.3s-3.36,3-5,4.43c-.06.06,0,.18.1.13,3.08-2.43,6.28-4.73,9.45-7s6.23-4.63,9.51-6.64c6.36-3.89,14.12-4.78,21.37-4.45,2.17.1,4.42.19,6.57.5s4.39.87,6.59,1.29A.11.11,0,0,0,212,124.86Z" style="fill:#a6a6a6"></path><path d="M217,136.94a5.42,5.42,0,0,0-4.36-1.95,4.53,4.53,0,0,0-2.24.8c-.19.14-.37.31-.56.47a7.85,7.85,0,0,0,1.14-3.81,6.13,6.13,0,0,0-1.14-3.69,37.63,37.63,0,0,0-2.87-3.42c-.11-.12-.27,0-.21.16.62,1.21,1.3,2.39,1.95,3.58a7.07,7.07,0,0,1,.95,3.5c0,.17,0,.33,0,.5a3.59,3.59,0,0,0-.42-.58,5.64,5.64,0,0,0-2.93-1.93,9.76,9.76,0,0,0-3.61.18,16.06,16.06,0,0,0-3.86,1.09c-.2.09-.12.42.11.35a18.07,18.07,0,0,1,6.17-.61,5.36,5.36,0,0,1,2.74.91c.61.42,1.48.88,1.7,1.6a15.15,15.15,0,0,1-2.13,5.62c0,.09.08.16.14.08.51-.8,1.08-1.59,1.61-2.41a6.54,6.54,0,0,1,3.57-1.38,6.06,6.06,0,0,1,4.18,1A.07.07,0,0,0,217,136.94Z" style="fill:#a6a6a6"></path><path d="M234.89,162.26a14.55,14.55,0,0,0-1.3-4.12,33.37,33.37,0,0,0-2.33-3.78c-.87-1.33-1.74-2.67-2.57-4,0,0-.05,0,0,0a73.94,73.94,0,0,1,4,8,28.27,28.27,0,0,1,1.25,3.88,23.72,23.72,0,0,1,.81,4.26.08.08,0,0,0,.16,0A17.36,17.36,0,0,0,234.89,162.26Z" style="fill:#a6a6a6"></path><path d="M227.21,140.8a12.7,12.7,0,0,0-2.55-3,29.73,29.73,0,0,0-3.56-2c-1.3-.71-2.61-1.43-3.86-2.24-.09-.06-.16.08-.08.13,2.34,1.56,4.47,3.4,6.71,5.09a23.68,23.68,0,0,1,2.77,2.53l3.11,3.21s.07,0,.05,0C228.94,143.23,228.08,142,227.21,140.8Z" style="fill:#a6a6a6"></path><path d="M187.39,148c-3.55,2.05-7.06,4.19-10.49,6.44a34.29,34.29,0,0,0-8.17,6.75c-2.38,3-3.49,6.62-4.39,10.25a92.57,92.57,0,0,0-2.19,12.35,128.94,128.94,0,0,0-.66,14c0,.1.16.09.16,0a103,103,0,0,1,3.18-24.26c.9-3.69,1.84-7.45,3.92-10.69a30.33,30.33,0,0,1,7.49-7.5A121.39,121.39,0,0,1,187.41,148S187.41,148,187.39,148Z" style="fill:#a6a6a6"></path><polygon points="235.47 186.42 233.04 186.87 232.5 189.43 231.95 186.87 229.52 186.41 231.94 185.82 232.5 183.4 233.05 185.82 235.47 186.42" style="fill:#fdfdfd"></polygon><polygon points="195.99 212.86 193.56 213.31 193.01 215.88 192.47 213.31 190.04 212.86 192.46 212.27 193.01 209.85 193.57 212.27 195.99 212.86" style="fill:#fdfdfd"></polygon><polygon points="218.89 156.14 216.46 156.59 215.91 159.15 215.37 156.59 212.94 156.13 215.36 155.54 215.91 153.12 216.47 155.54 218.89 156.14" style="fill:#fdfdfd"></polygon><polygon points="230.29 193.28 228.93 193.54 228.62 194.97 228.32 193.54 226.96 193.28 228.31 192.95 228.62 191.6 228.93 192.95 230.29 193.28" style="fill:#fdfdfd"></polygon><polygon points="182 178.24 180.64 178.49 180.33 179.92 180.03 178.49 178.67 178.24 180.02 177.91 180.33 176.55 180.64 177.91 182 178.24" style="fill:#fdfdfd"></polygon><path d="M185.91,164.14a.4.4,0,0,0,0,.79A.4.4,0,0,0,185.91,164.14Z" style="fill:#fdfdfd"></path><path d="M222.2,159.74a.4.4,0,0,0,0,.79A.4.4,0,0,0,222.2,159.74Z" style="fill:#fdfdfd"></path><path d="M202.45,217.11a.28.28,0,0,0,0,.56A.28.28,0,0,0,202.45,217.11Z" style="fill:#fdfdfd"></path><path d="M231.25,197a.76.76,0,0,0,0,1.51A.76.76,0,0,0,231.25,197Z" style="fill:#fdfdfd"></path><path d="M206,214.55a.76.76,0,0,0,0,1.51A.76.76,0,0,0,206,214.55Z" style="fill:#fdfdfd"></path><path d="M115.11,390.59c13.74-14,28.66-63.56,46.73-126.25,2.5-8.68-59.63-22.48-62.77-13.36-4,11.5-14.68,97.57-12.33,118.41C90.23,400.46,107.31,398.57,115.11,390.59Z" style="fill: rgb(119, 68, 66);"></path><path d="M193.28,241.85c-1.39,8.1-16.7,2.52-25.3,9.37-.75,3.25-3.2,10.25-11.24,17.28l-60.22-3.8s1.68-27.56,12-45.66c7.17-12.5,25.81-38,68.84-38.53,10.21-.12,24.84,6.93,8.25,13.2a90.31,90.31,0,0,1-16.22,4.12c11.19-.35,21.28,1.37,22.77,7.59,2,8.11-9.32,10.33-9.32,10.33s12.6,1.27,12.75,9c.14,7-8.68,8.22-8.68,8.22S194.45,235.05,193.28,241.85Z" style="fill: rgb(119, 68, 66);"></path><path d="M146.12,217.74c6.53-3,23.14-6.11,36.54-2.23.3.09.4.37.1.34a152,152,0,0,0-36.6,2C146.07,217.9,146.05,217.78,146.12,217.74Z" style="fill:#263238"></path><path d="M141.25,205.14c5.07-4,18.92-9.51,31.4-7.78.29,0,.43.3.17.32a118.27,118.27,0,0,0-31.51,7.6C141.24,205.31,141.19,205.19,141.25,205.14Z" style="fill:#263238"></path><path d="M150.34,232.72c5.91-2,23.16-4.44,36.61-.05.3.1.38.39.08.35a161.91,161.91,0,0,0-36.66-.15C150.29,232.88,150.27,232.75,150.34,232.72Z" style="fill:#263238"></path><path d="M193.86,238.31a8.28,8.28,0,0,0-2.36-3.48,12.07,12.07,0,0,0-4.62-2.06c-.15,0-.2.18-.06.23,2.35.89,5.44,3.16,6.18,5.57a5.31,5.31,0,0,1-2.6,6.16c-2.32,1.45-5.16,1.51-7.81,1.7a39.79,39.79,0,0,0-7.37,1,18.38,18.38,0,0,0-7.21,3.58c-.07.06,0,.17.1.12,4.71-3.23,10.61-3.43,16.11-3.78,2.7-.17,5.54-.64,7.69-2.42A6.1,6.1,0,0,0,193.86,238.31Z" style="fill:#263238"></path><path d="M190.31,217.21a30.87,30.87,0,0,0-7.63-1.77c-.29,0-.29.39,0,.45,1.44.3,7.62,1.32,10.91,4.66a6.39,6.39,0,0,1,1.92,4.66,6.74,6.74,0,0,1-2.33,4.54,14.65,14.65,0,0,1-6.12,3c-.08,0-.06.17,0,.15a14.57,14.57,0,0,0,6.21-2.07,7.63,7.63,0,0,0,3.07-4.66C197.16,222,193.78,218.75,190.31,217.21Z" style="fill:#263238"></path><path d="M193.08,206.54c-.42-5.16-5.63-7.52-10.16-8.33-3.6-.65-8.29-.48-10.88-.65-.67,0-.76.17-.66.18.58.11,11.54.47,16.12,2.8a8.23,8.23,0,0,1,4.28,4.64,6.08,6.08,0,0,1,.16,3.25,6.48,6.48,0,0,1-1.83,2.92c-1.88,1.91-4.76,3.16-7.21,4.2-.11,0-.11.25,0,.23a14,14,0,0,0,7.1-3.09C191.92,211.1,193.29,209.1,193.08,206.54Z" style="fill:#263238"></path><path d="M192.63,185.09c-.88-1.17-3.8-3.23-8.2-4.11a28.14,28.14,0,0,0-11.17-.4.07.07,0,0,0,0,.15c1.67,0,11.59,0,17.5,3.85,1.15.75,2.22,2.18,1.76,3.62-1.64,5.09-17.35,8.21-20.55,9.08-.17,0-.13.33,0,.3,6.27-.92,18.87-3.2,21.35-8.72A3.79,3.79,0,0,0,192.63,185.09Z" style="fill:#263238"></path><path d="M91.72,275.42c4-1.86,11.12,16.61,24.3,16.61,8.86,0,44.28-12.56,45.64-11.92S159.6,304,159.32,308s-17,30.26-17,32.26-18.23,58.86-39.85,56.86-21-56.64-19.28-72.88S83.93,279.08,91.72,275.42Z" style="fill:#D5A9CF"></path><path d="M162.68,280.12a.55.55,0,0,0-.6-.57c-2.25.37-3.6.86-5,1.14-.38.08-.24.68.16.61a31.41,31.41,0,0,1,4.2-.61c-.2,2.36-.24,4.74-.37,7.1s-.31,5-.52,7.5-.48,5.11-.78,7.66a25,25,0,0,1-1.5,6.95,48,48,0,0,1-3.44,6.09c-1.27,2.07-2.53,4.14-3.77,6.23-2.46,4.13-4.8,8.34-6.91,12.67-4.27,8.74-6.85,18.17-10.74,27.07a137.46,137.46,0,0,1-13.6,24.3,30.7,30.7,0,0,1-8.27,8.5,14.23,14.23,0,0,1-5.42,2.07,14.77,14.77,0,0,1-10.63-2.64c-.08-.06-.13.22-.05.29a15.38,15.38,0,0,0,13,2.78c3.86-1,7.08-3.79,9.65-6.72a81.73,81.73,0,0,0,7.71-10.92,132.41,132.41,0,0,0,6.89-12.6c2.11-4.41,3.95-8.95,5.64-13.54,1.74-4.74,3.37-9.52,5.34-14.17a115.67,115.67,0,0,1,6.72-13.17c2.47-4.23,5.21-8.29,7.65-12.53a21.55,21.55,0,0,0,2.55-6.61c.48-2.45.67-5,.92-7.45.52-5.19.93-10.4,1.11-15.61C162.68,282.67,162.74,281.4,162.68,280.12Z" style="fill:#263238"></path><path d="M157.72,307.75a188.93,188.93,0,0,1-29,10.58,56,56,0,0,1-7.66,1.68,26,26,0,0,1-7.68-.2A47.87,47.87,0,0,1,100,315.2a47,47,0,0,1-6.44-4,40,40,0,0,1-5.82-5c-.07-.08-.17,0-.11.11a49.08,49.08,0,0,0,10.24,9.17A42,42,0,0,0,111,321.2a28.12,28.12,0,0,0,8,.76,36.92,36.92,0,0,0,7.8-1.48,146.75,146.75,0,0,0,15-5.15,158.22,158.22,0,0,0,16-7.4C158,307.86,157.84,307.69,157.72,307.75Z" style="fill:#263238"></path></g><g id="freepik--Table--inject-5"><polygon points="18.93 402.76 76.7 402.51 134.47 402.43 250 402.26 365.54 402.43 423.3 402.51 481.07 402.76 423.3 403 365.54 403.09 250 403.26 134.47 403.09 76.7 403 18.93 402.76" style="fill:#263238"></polygon></g><g id="freepik--Products--inject-5"><polygon points="396.26 449.45 344.59 449.45 345.56 435.78 345.85 431.77 346.19 427.08 346.76 419.04 349.43 381.43 392.64 381.43 394.64 419.04 395.07 427.08 395.32 431.77 395.54 435.78 396.26 449.45" style="fill:#D5A9CF"></polygon><polygon points="395.07 427.08 346.19 427.08 346.76 419.04 394.64 419.04 395.07 427.08" style="fill:#263238"></polygon><polygon points="395.54 435.78 345.56 435.78 345.85 431.77 395.32 431.77 395.54 435.78" style="fill:#263238"></polygon><rect x="361.11" y="372.92" width="19.6" height="8.51" style="fill:#ebebeb"></rect><polygon points="366.29 366.34 356.9 365.13 356.9 363.07 366.29 363.07 366.29 366.34" style="fill:#ebebeb"></polygon><rect x="366.29" y="363.07" width="9.25" height="9.85" style="fill:#ebebeb"></rect><rect x="366.29" y="369.59" width="9.25" height="3.32" style="fill:#dbdbdb"></rect><rect x="291.49" y="408.28" width="21.27" height="36.84" style="fill:#D5A9CF"></rect><rect x="295.16" y="398.76" width="13.94" height="5.6" style="fill:#37474f"></rect><path d="M301.73,385.76h.8a2.83,2.83,0,0,1,2.83,2.83v10.18a0,0,0,0,1,0,0H298.9a0,0,0,0,1,0,0V388.58A2.83,2.83,0,0,1,301.73,385.76Z" style="fill:#37474f"></path><rect x="296.82" y="404.36" width="10.62" height="3.92" style="fill:#D5A9CF"></rect><rect x="296.82" y="404.36" width="10.62" height="2.38" style="opacity:0.1"></rect><rect x="296.11" y="414.78" width="14.56" height="15.95" style="fill:#fff"></rect><rect x="318.07" y="408.28" width="21.27" height="36.84" style="fill:#455a64"></rect><rect x="321.73" y="398.76" width="13.94" height="5.6" style="fill:#37474f"></rect><path d="M328.3,385.76h.8a2.83,2.83,0,0,1,2.83,2.83v10.18a0,0,0,0,1,0,0h-6.46a0,0,0,0,1,0,0V388.58A2.83,2.83,0,0,1,328.3,385.76Z" style="fill:#37474f"></path><rect x="323.39" y="404.36" width="10.62" height="3.92" style="fill:#455a64"></rect><rect x="323.39" y="404.36" width="10.62" height="2.38" style="opacity:0.1"></rect><rect x="322.69" y="414.78" width="14.56" height="15.95" style="fill:#fff"></rect><polygon points="439.87 360.92 439.87 365.99 434.04 432.06 408.14 432.06 402.3 365.99 402.3 360.92 439.87 360.92" style="fill:#D5A9CF"></polygon><g style="opacity:0.2"><path d="M403.42,364.71a7.47,7.47,0,0,1-.13-1.41,7.58,7.58,0,0,1,.13-1.42,7.56,7.56,0,0,1,.12,1.42A7.46,7.46,0,0,1,403.42,364.71Z"></path><path d="M405,364.71a7.46,7.46,0,0,1-.12-1.41,7.56,7.56,0,0,1,.12-1.42,7.58,7.58,0,0,1,.13,1.42A7.47,7.47,0,0,1,405,364.71Z"></path><path d="M406.49,364.71a7.46,7.46,0,0,1-.12-1.41,7.56,7.56,0,0,1,.12-1.42,8.52,8.52,0,0,1,.13,1.42A8.4,8.4,0,0,1,406.49,364.71Z"></path><path d="M408,364.71a7.47,7.47,0,0,1-.13-1.41,7.58,7.58,0,0,1,.13-1.42,7.56,7.56,0,0,1,.12,1.42A7.46,7.46,0,0,1,408,364.71Z"></path><path d="M409.56,364.71a7.46,7.46,0,0,1-.12-1.41,7.56,7.56,0,0,1,.12-1.42,7.58,7.58,0,0,1,.13,1.42A7.47,7.47,0,0,1,409.56,364.71Z"></path><path d="M411.1,364.71a8.4,8.4,0,0,1-.13-1.41,8.52,8.52,0,0,1,.13-1.42,7.56,7.56,0,0,1,.12,1.42A7.46,7.46,0,0,1,411.1,364.71Z"></path><path d="M412.64,364.71a7.47,7.47,0,0,1-.13-1.41,7.58,7.58,0,0,1,.13-1.42,7.56,7.56,0,0,1,.12,1.42A7.46,7.46,0,0,1,412.64,364.71Z"></path><path d="M414.17,364.71a7.46,7.46,0,0,1-.12-1.41,7.56,7.56,0,0,1,.12-1.42,7.58,7.58,0,0,1,.13,1.42A7.47,7.47,0,0,1,414.17,364.71Z"></path><path d="M415.71,364.71a8.4,8.4,0,0,1-.13-1.41,7.58,7.58,0,0,1,.13-1.42,7.56,7.56,0,0,1,.12,1.42A7.46,7.46,0,0,1,415.71,364.71Z"></path><path d="M417.24,364.71a7.46,7.46,0,0,1-.12-1.41,7.56,7.56,0,0,1,.12-1.42,6.82,6.82,0,0,1,.13,1.42A6.73,6.73,0,0,1,417.24,364.71Z"></path><path d="M418.78,364.71a7.46,7.46,0,0,1-.12-1.41,7.56,7.56,0,0,1,.12-1.42,7.58,7.58,0,0,1,.13,1.42A8.4,8.4,0,0,1,418.78,364.71Z"></path><path d="M420.32,364.71a7.47,7.47,0,0,1-.13-1.41,7.58,7.58,0,0,1,.13-1.42,7.56,7.56,0,0,1,.12,1.42A7.46,7.46,0,0,1,420.32,364.71Z"></path><path d="M421.85,364.71a7.46,7.46,0,0,1-.12-1.41,7.56,7.56,0,0,1,.12-1.42,7.58,7.58,0,0,1,.13,1.42A7.47,7.47,0,0,1,421.85,364.71Z"></path><path d="M423.39,364.71a7.46,7.46,0,0,1-.12-1.41,7.56,7.56,0,0,1,.12-1.42,8.52,8.52,0,0,1,.13,1.42A8.4,8.4,0,0,1,423.39,364.71Z"></path><path d="M424.93,364.71a7.47,7.47,0,0,1-.13-1.41,7.58,7.58,0,0,1,.13-1.42,7.56,7.56,0,0,1,.12,1.42A7.46,7.46,0,0,1,424.93,364.71Z"></path><path d="M426.46,364.71a7.46,7.46,0,0,1-.12-1.41,7.56,7.56,0,0,1,.12-1.42,7.58,7.58,0,0,1,.13,1.42A7.47,7.47,0,0,1,426.46,364.71Z"></path><path d="M428,364.71a8.4,8.4,0,0,1-.13-1.41,8.52,8.52,0,0,1,.13-1.42,7.56,7.56,0,0,1,.12,1.42A7.46,7.46,0,0,1,428,364.71Z"></path><path d="M429.54,364.71a7.47,7.47,0,0,1-.13-1.41,7.58,7.58,0,0,1,.13-1.42,7.56,7.56,0,0,1,.12,1.42A7.46,7.46,0,0,1,429.54,364.71Z"></path><path d="M431.07,364.71a7.46,7.46,0,0,1-.12-1.41,7.56,7.56,0,0,1,.12-1.42,7.58,7.58,0,0,1,.13,1.42A7.47,7.47,0,0,1,431.07,364.71Z"></path><path d="M432.61,364.71a8.4,8.4,0,0,1-.13-1.41,7.58,7.58,0,0,1,.13-1.42,7.56,7.56,0,0,1,.12,1.42A7.46,7.46,0,0,1,432.61,364.71Z"></path><path d="M434.15,364.71a6.73,6.73,0,0,1-.13-1.41,6.82,6.82,0,0,1,.13-1.42,7.56,7.56,0,0,1,.12,1.42A7.46,7.46,0,0,1,434.15,364.71Z"></path><path d="M435.68,364.71a7.46,7.46,0,0,1-.12-1.41,7.56,7.56,0,0,1,.12-1.42,7.58,7.58,0,0,1,.13,1.42A8.4,8.4,0,0,1,435.68,364.71Z"></path><path d="M437.22,364.71a7.47,7.47,0,0,1-.13-1.41,7.58,7.58,0,0,1,.13-1.42,7.56,7.56,0,0,1,.12,1.42A7.46,7.46,0,0,1,437.22,364.71Z"></path><path d="M438.75,364.71a7.46,7.46,0,0,1-.12-1.41,7.56,7.56,0,0,1,.12-1.42,7.58,7.58,0,0,1,.13,1.42A7.47,7.47,0,0,1,438.75,364.71Z"></path></g><rect x="408.14" y="432.06" width="26.01" height="11.75" style="fill:#dbdbdb"></rect><rect x="408.14" y="439.13" width="26.01" height="0.71" style="fill:#c7c7c7"></rect><ellipse cx="421.09" cy="404.02" rx="10.75" ry="15.32" style="opacity:0.1"></ellipse></g><g id="freepik--Towels--inject-5"><path d="M179.18,432H60.39a18.72,18.72,0,0,1-18.72-18.73h0a18.72,18.72,0,0,1,18.72-18.72H179.18Z" style="fill:#dbdbdb"></path><path d="M194.76,414.26H74.52a1.72,1.72,0,0,1-1.71-1.72V396.29a1.72,1.72,0,0,1,1.71-1.72H194.76a9.85,9.85,0,0,1,9.84,9.85h0A9.85,9.85,0,0,1,194.76,414.26Z" style="fill:#dbdbdb"></path><path d="M194.76,432H74.52a1.72,1.72,0,0,1-1.71-1.72V414.05a1.72,1.72,0,0,1,1.71-1.71H194.76a9.84,9.84,0,0,1,9.84,9.84h0A9.85,9.85,0,0,1,194.76,432Z" style="fill:#dbdbdb"></path><path d="M46.88,423.38a.53.53,0,0,0-.72-.17,7.06,7.06,0,0,0-2.78,2.36.53.53,0,0,0,.2.71.54.54,0,0,0,.71-.21l0,0,0,0,.14-.17c.08-.11.18-.21.27-.32a6.32,6.32,0,0,1,.6-.56s.1-.08,0,0l.07-.06.17-.12c.11-.09.23-.16.35-.24a5.29,5.29,0,0,1,.74-.4A.53.53,0,0,0,46.88,423.38Z" style="fill:#dbdbdb"></path><path d="M48.38,425.4a.53.53,0,0,0-.71.21l-.06.1,0,0-.17.18,0,0h0l-.1.07-.23.14-.06,0h0l-.07,0-.29.11-.61.16a.53.53,0,0,0-.35.65.54.54,0,0,0,.65.35,3.35,3.35,0,0,0,2.31-1.38A.54.54,0,0,0,48.38,425.4Z" style="fill:#dbdbdb"></path><path d="M69.92,395.65l0,0s0-.08,0-.12l-.09-.28a.8.8,0,0,1,0-.26h0v0a.77.77,0,0,1,0-.15,2.44,2.44,0,0,1,0-.27c0-.05,0-.1,0-.15v0a2,2,0,0,1,0-.26c0-.1,0-.2.09-.3a.52.52,0,0,0-.39-.63.53.53,0,0,0-.63.38A3.52,3.52,0,0,0,69,396.2a.52.52,0,0,0,.72.17A.54.54,0,0,0,69.92,395.65Z" style="fill:#dbdbdb"></path><path d="M114.65,393.5a.52.52,0,0,0-.53-.51.52.52,0,0,0-.51.53c0,.51.07,1,.06,1.53,0,.24,0,.49,0,.73l0,.36a1.5,1.5,0,0,1,0,.22h0s0,.08,0,.12a.52.52,0,1,0,1,.25A15.26,15.26,0,0,0,114.65,393.5Z" style="fill:#dbdbdb"></path><path d="M116.94,392.48a.52.52,0,0,0-.65-.34.54.54,0,0,0-.35.65l0,.1v0a1,1,0,0,1,0,.12c0,.11,0,.22,0,.33s0,.44.06.65c0,.45,0,.89,0,1.34a.52.52,0,0,0,.53.51.53.53,0,0,0,.51-.54A13.67,13.67,0,0,0,116.94,392.48Z" style="fill:#dbdbdb"></path><path d="M145.64,429.42a.55.55,0,0,0-.64.38,6.44,6.44,0,0,0-.18,3.17.52.52,0,0,0,.65.35.54.54,0,0,0,.35-.65s0-.07,0-.1a1.1,1.1,0,0,1,0-.18c0-.11,0-.21,0-.32s0-.48,0-.72c0-.05,0-.11,0-.16v-.1c0-.11,0-.23.05-.34a5.41,5.41,0,0,1,.19-.69A.54.54,0,0,0,145.64,429.42Z" style="fill:#dbdbdb"></path><path d="M148.69,430.26a.53.53,0,0,0-1.05,0,21.71,21.71,0,0,1,.08,3.42.53.53,0,0,0,.54.51.52.52,0,0,0,.5-.54A21.56,21.56,0,0,0,148.69,430.26Z" style="fill:#dbdbdb"></path><path d="M101.78,430.33a.54.54,0,0,0-.71.21,5.9,5.9,0,0,0-.68,2.37.52.52,0,0,0,.53.51.55.55,0,0,0,.51-.54s0-.2,0-.05a.52.52,0,0,1,0-.11c0-.08,0-.17,0-.26a3.3,3.3,0,0,1,.13-.52,1.83,1.83,0,0,1,.08-.25c0-.05,0-.09,0-.13h0v0c.07-.16.15-.33.24-.49A.53.53,0,0,0,101.78,430.33Z" style="fill:#dbdbdb"></path><path d="M163.89,392.81a.52.52,0,0,0-.5.54q0,.31,0,.63s0,.09,0,.11a.59.59,0,0,0,0,.14c0,.11-.05.22-.08.34s-.05.21-.08.31a.88.88,0,0,0,0,.15.66.66,0,0,0,0,.11l-.05.11a1,1,0,0,1-.07.15,3,3,0,0,1-.16.31.53.53,0,0,0,.92.51,5.74,5.74,0,0,0,.71-2.9A.53.53,0,0,0,163.89,392.81Z" style="fill:#dbdbdb"></path><path d="M204.11,415.38a8.78,8.78,0,0,0-4.12,1.13.54.54,0,0,0-.17.72.53.53,0,0,0,.72.17,7.58,7.58,0,0,1,3.6-1,.53.53,0,0,0,0-1.05Z" style="fill:#dbdbdb"></path><path d="M204.69,417.67l-2-.26a.52.52,0,0,0-.64.38.52.52,0,0,0,.38.63l2,.26a.51.51,0,0,0,.63-.38A.52.52,0,0,0,204.69,417.67Z" style="fill:#dbdbdb"></path><path d="M199,413.29c-33.34,0-117.29,1-126.19,1S66.53,411.36,69,411,199,413.29,199,413.29Z" style="fill:#c7c7c7"></path><path d="M138.72,398.46h-74A11.66,11.66,0,0,1,53,386.8h0a11.66,11.66,0,0,1,11.66-11.67h74Z" style="fill:#455a64"></path><path d="M148.42,387.4H73.5a1.07,1.07,0,0,1-1.07-1.07V376.2a1.07,1.07,0,0,1,1.07-1.07h74.92a6.14,6.14,0,0,1,6.14,6.13h0A6.14,6.14,0,0,1,148.42,387.4Z" style="fill:#455a64"></path><path d="M148.42,398.47H73.5a1.07,1.07,0,0,1-1.07-1.07V387.27a1.07,1.07,0,0,1,1.07-1.07h74.92a6.14,6.14,0,0,1,6.14,6.14h0A6.14,6.14,0,0,1,148.42,398.47Z" style="fill:#455a64"></path><path d="M56.27,393.08a.35.35,0,0,0-.45-.11,4.5,4.5,0,0,0-1.73,1.48.32.32,0,0,0,.13.44.34.34,0,0,0,.44-.13l0,0,0,0,.09-.1a1.63,1.63,0,0,1,.17-.2,4,4,0,0,1,.37-.35h0l0,0,.11-.08.21-.15a4.23,4.23,0,0,1,.47-.25A.33.33,0,0,0,56.27,393.08Z" style="fill:#37474f"></path><path d="M57.21,394.34a.33.33,0,0,0-.44.13l0,.06,0,0-.11.11v0h0l-.06,0-.14.09,0,0h-.07l-.18.07-.38.1a.34.34,0,0,0-.22.41.33.33,0,0,0,.41.21,2.08,2.08,0,0,0,1.44-.86A.34.34,0,0,0,57.21,394.34Z" style="fill:#37474f"></path><path d="M70.63,375.8l0,0,0-.08a.84.84,0,0,1,0-.17.47.47,0,0,1,0-.16h0s0-.06,0-.1V375h0a1.22,1.22,0,0,1,0-.17,1.21,1.21,0,0,1,0-.18.33.33,0,1,0-.63-.16,2.23,2.23,0,0,0,.15,1.68.32.32,0,0,0,.44.1A.33.33,0,0,0,70.63,375.8Z" style="fill:#37474f"></path><path d="M98.51,374.46a.34.34,0,0,0-.34-.32.32.32,0,0,0-.31.33c0,.32,0,.64,0,.95,0,.16,0,.31,0,.46a1.79,1.79,0,0,0,0,.23s0,.09,0,.13h0v.08a.34.34,0,0,0,.24.39.34.34,0,0,0,.4-.24A9.75,9.75,0,0,0,98.51,374.46Z" style="fill:#37474f"></path><path d="M99.93,373.83a.32.32,0,0,0-.4-.22.34.34,0,0,0-.22.41v.08a.56.56,0,0,1,0,.07l0,.21c0,.14,0,.27,0,.41a7.66,7.66,0,0,1,0,.83.34.34,0,0,0,.34.32.35.35,0,0,0,.32-.34A8.8,8.8,0,0,0,99.93,373.83Z" style="fill:#37474f"></path><path d="M117.81,396.85a.33.33,0,0,0-.39.23,4,4,0,0,0-.12,2,.34.34,0,0,0,.41.22.35.35,0,0,0,.22-.41v-.06s0-.08,0-.12,0-.13,0-.19,0-.3,0-.45v-.16a1.55,1.55,0,0,1,0-.21c0-.15.07-.3.11-.44A.32.32,0,0,0,117.81,396.85Z" style="fill:#37474f"></path><path d="M119.72,397.37a.34.34,0,0,0-.34-.32.32.32,0,0,0-.31.33,15.15,15.15,0,0,1,0,2.13.33.33,0,0,0,.34.32.33.33,0,0,0,.31-.33A13.78,13.78,0,0,0,119.72,397.37Z" style="fill:#37474f"></path><path d="M90.49,397.41a.35.35,0,0,0-.45.13,3.82,3.82,0,0,0-.42,1.48.32.32,0,0,0,.33.32.36.36,0,0,0,.32-.34v0a.2.2,0,0,1,0-.07,1,1,0,0,1,0-.16c0-.11,0-.22.08-.33s0-.1.05-.15l0-.08h0v0c0-.1.09-.2.14-.3A.35.35,0,0,0,90.49,397.41Z" style="fill:#37474f"></path><path d="M129.19,374a.34.34,0,0,0-.32.34,2.54,2.54,0,0,1,0,.39v.07s0,.05,0,.08a1.74,1.74,0,0,1-.05.22,1.33,1.33,0,0,1,0,.19l0,.1,0,.06,0,.07a.3.3,0,0,1,0,.1,1.74,1.74,0,0,1-.1.19.32.32,0,0,0,.57.31,3.52,3.52,0,0,0,.45-1.8A.34.34,0,0,0,129.19,374Z" style="fill:#37474f"></path><path d="M154.25,388.1a5.34,5.34,0,0,0-2.56.7.33.33,0,0,0-.11.45.35.35,0,0,0,.45.11,4.65,4.65,0,0,1,2.24-.61.33.33,0,1,0,0-.65Z" style="fill:#37474f"></path><path d="M154.61,389.52l-1.25-.16a.36.36,0,0,0-.25,0,.34.34,0,0,0-.15.2.33.33,0,0,0,.24.39l1.26.16a.36.36,0,0,0,.25,0,.33.33,0,0,0-.1-.59Z" style="fill:#37474f"></path><path d="M151.07,386.8c-20.77,0-73.09.6-78.64.6s-3.91-1.81-2.39-2S151.07,386.8,151.07,386.8Z" style="fill:#37474f"></path></g></svg>