<svg xmlns="http://www.w3.org/2000/svg" viewBox="0 0 500 500"><g id="freepik--Picture--inject-458"><rect x="59.37" y="79.75" width="120.65" height="164.34" style="fill:none;stroke:#263238;stroke-linecap:round;stroke-linejoin:round"></rect><rect x="67.54" y="86.67" width="104.31" height="150.49" style="fill:none;stroke:#263238;stroke-linecap:round;stroke-linejoin:round"></rect><path d="M171.85,95.83c-1.71-.42-20-4.68-24.14,5.24-4.33,10.4,24.28,37.28,8.67,59s-59.82-11.27-66.75,6.07-6.07,40.75-18.21,45.08a24.14,24.14,0,0,1-3.88,1v25H171.85Z" style="fill:none;stroke:#263238;stroke-miterlimit:10"></path><path d="M93.37,86.67C101.22,91,107,97.24,100.9,105.41c-13,17.33-32.08,27.74-19.94,37.27s44.21,1.74,39.88-25.14c-2.4-14.86-2.4-24.41-.18-30.87Z" style="fill:none;stroke:#263238;stroke-miterlimit:10"></path><circle cx="115.2" cy="197.73" r="16.04" transform="translate(-70.16 63.53) rotate(-23.87)" style="fill:none;stroke:#263238;stroke-miterlimit:10"></circle><path d="M165.92,183a6.5,6.5,0,1,1-6.5-6.51A6.5,6.5,0,0,1,165.92,183Z" style="fill:none;stroke:#263238;stroke-miterlimit:10"></path><path d="M102.63,129.68a5.2,5.2,0,1,1-5.2-5.2A5.2,5.2,0,0,1,102.63,129.68Z" style="fill:none;stroke:#263238;stroke-miterlimit:10"></path></g><g id="freepik--Plants--inject-458"><polyline points="475.06 354.3 350.38 354.3 350.38 369.99 465.65 369.99" style="fill:none;stroke:#263238;stroke-linecap:round;stroke-linejoin:round"></polyline><line x1="356.66" y1="369.99" x2="356.66" y2="442.13" style="fill:none;stroke:#263238;stroke-linecap:round;stroke-linejoin:round"></line><polyline points="428.8 409.19 366.06 409.19 366.06 377.83 460.94 377.83" style="fill:none;stroke:#263238;stroke-linecap:round;stroke-linejoin:round"></polyline><polyline points="366.06 438.99 366.06 417.82 414.68 417.82" style="fill:none;stroke:#263238;stroke-linecap:round;stroke-linejoin:round"></polyline><ellipse cx="420.19" cy="273.52" rx="7.92" ry="20.77" style="fill:#000000"></ellipse><ellipse cx="438.65" cy="258.77" rx="14.8" ry="6.44" transform="translate(59.21 598.47) rotate(-72.37)" style="fill:#000000"></ellipse><path d="M386.69,307.69c-8.06-1.36-14.11-5.31-13.51-8.82s7.61-5.25,15.66-3.88,14.12,5.32,13.52,8.82S394.75,309.06,386.69,307.69Z" style="fill:#000000"></path><ellipse cx="446.67" cy="282.87" rx="17.17" ry="7.92" transform="translate(-69.67 396.55) rotate(-44.76)" style="fill:#000000"></ellipse><ellipse cx="398.41" cy="275.32" rx="9.05" ry="20.77" transform="translate(-85.87 274.73) rotate(-34.58)" style="fill:#000000"></ellipse><line x1="420.74" y1="293.26" x2="421.36" y2="321.81" style="fill:none;stroke:#263238;stroke-linecap:round;stroke-miterlimit:10"></line><line x1="420.01" y1="265.8" x2="420.74" y2="293.26" style="fill:none;stroke:#8c8c8c;stroke-linecap:round;stroke-miterlimit:10"></line><line x1="420.06" y1="261.32" x2="420.01" y2="263.43" style="fill:none;stroke:#8c8c8c;stroke-linecap:round;stroke-miterlimit:10"></line><path d="M410.16,291.07A79.6,79.6,0,0,1,418,321" style="fill:none;stroke:#263238;stroke-linecap:round;stroke-miterlimit:10"></path><path d="M396.56,270.26a94,94,0,0,1,13.6,20.81" style="fill:none;stroke:#8c8c8c;stroke-linecap:round;stroke-miterlimit:10"></path><path d="M392.28,265.74s.82.75,2.17,2.18" style="fill:none;stroke:#8c8c8c;stroke-linecap:round;stroke-miterlimit:10"></path><path d="M435,294a93.6,93.6,0,0,0-12.83,25.47" style="fill:none;stroke:#263238;stroke-linecap:round;stroke-miterlimit:10"></path><path d="M444.08,283.53A75.11,75.11,0,0,0,435,294" style="fill:none;stroke:#8c8c8c;stroke-linecap:round;stroke-miterlimit:10"></path><path d="M453.81,276.12a41.42,41.42,0,0,0-6.94,4.92" style="fill:none;stroke:#8c8c8c;stroke-linecap:round;stroke-miterlimit:10"></path><path d="M434.64,270.94c-4.39,13.81-10.28,34.2-13,51.91" style="fill:none;stroke:#263238;stroke-linecap:round;stroke-miterlimit:10"></path><path d="M437.31,262.75c-.78,2.33-1.69,5.1-2.67,8.19" style="fill:none;stroke:#8c8c8c;stroke-linecap:round;stroke-miterlimit:10"></path><path d="M440.05,254.83s-.77,2.12-2,5.74" style="fill:none;stroke:#8c8c8c;stroke-linecap:round;stroke-miterlimit:10"></path><path d="M402,301.9a21.74,21.74,0,0,1,13.43,13.68" style="fill:none;stroke:#263238;stroke-linecap:round;stroke-miterlimit:10"></path><path d="M391.83,299.84A34.82,34.82,0,0,1,402,301.9" style="fill:none;stroke:#8c8c8c;stroke-linecap:round;stroke-miterlimit:10"></path><path d="M385.27,300s1-.14,2.59-.2" style="fill:none;stroke:#8c8c8c;stroke-linecap:round;stroke-miterlimit:10"></path><path d="M455.66,307.69c8.06-1.36,14.11-5.31,13.52-8.82s-7.61-5.25-15.67-3.88-14.11,5.32-13.52,8.82S447.6,309.06,455.66,307.69Z" style="fill:#000000"></path><path d="M440.57,301.83A21.75,21.75,0,0,0,427,315.58" style="fill:none;stroke:#263238;stroke-linecap:round;stroke-miterlimit:10"></path><path d="M451.37,299.8a35.42,35.42,0,0,0-10.8,2" style="fill:none;stroke:#8c8c8c;stroke-linecap:round;stroke-miterlimit:10"></path><path d="M457.08,300s-.64-.09-1.74-.16" style="fill:none;stroke:#8c8c8c;stroke-linecap:round;stroke-miterlimit:10"></path><path d="M400.53,313.5a33.54,33.54,0,0,0-1.5,10c0,15.41,10.11,31,22.59,31s22.58-15.61,22.58-31a33.54,33.54,0,0,0-1.5-10Z" style="fill:#263238"></path><path d="M399.45,318.18c-.12.76-.22,1.54-.28,2.33h44.9c-.07-.79-.16-1.57-.28-2.33Z" style="fill:#7a7a7a"></path><path d="M443.59,330.12q.21-1.17.36-2.34H399.29c.09.78.21,1.56.35,2.34Z" style="fill:#7a7a7a"></path><path d="M404.48,323.63a1.82,1.82,0,1,1-1.81-1.82A1.81,1.81,0,0,1,404.48,323.63Z" style="fill:#8c8c8c"></path><path d="M413.57,323.63a1.82,1.82,0,1,1-1.82-1.82A1.81,1.81,0,0,1,413.57,323.63Z" style="fill:#8c8c8c"></path><path d="M422.65,323.63a1.82,1.82,0,1,1-1.81-1.82A1.81,1.81,0,0,1,422.65,323.63Z" style="fill:#8c8c8c"></path><path d="M431.74,323.63a1.82,1.82,0,1,1-1.82-1.82A1.81,1.81,0,0,1,431.74,323.63Z" style="fill:#8c8c8c"></path><path d="M440.83,323.63a1.82,1.82,0,1,1-1.82-1.82A1.82,1.82,0,0,1,440.83,323.63Z" style="fill:#8c8c8c"></path><path d="M86.9,440.67c.55-1.63,1.07-3.17,1.46-4.38-1.61-2.39-3.07-4.49-4-5.9-.16-.24-.38-.17-.5,0l.15,1.27C84.64,434,85.69,437.23,86.9,440.67Z" style="fill:#000000"></path><path d="M89.37,435.25c0-.35-.57-.35-.68,0s-.21.66-.33,1l1.25,1.88C89.55,437,89.47,436,89.37,435.25Z" style="fill:#000000"></path><path d="M94.74,446.11a.31.31,0,0,0-.36-.3l.35.62C94.73,446.32,94.74,446.21,94.74,446.11Z" style="fill:#000000"></path><path d="M86.48,441.92c-.83,2.59-1.85,5.33-2.35,7.37a49.76,49.76,0,0,0-1.31,6.52c-.85-2.23-1.73-4.45-2.76-6.6A7.55,7.55,0,0,0,82.23,446,29.8,29.8,0,0,0,84,439.5a36.66,36.66,0,0,0,0-7.65,1,1,0,0,1,0-.16c-.07-.24-.15-.48-.21-.7a.68.68,0,0,1,.06-.57c-.27-2.11-.58-4.06-.86-5.29-.08-.34-.61-.29-.68.07-.3,1.55-.93,4.18-1.53,6.84s-1.25,5.46-1.56,7.56a51.33,51.33,0,0,0-.57,6.62L77,443,75.14,440a7.39,7.39,0,0,0,1.8-3.47,30.51,30.51,0,0,0,1-6.58,39.56,39.56,0,0,0-.72-7.59c-.6-2.64-1.35-5.16-1.84-6.7-.11-.35-.65-.24-.67.13-.16,1.62-.44,4.28-.72,7.08s-.73,5.58-.78,7.68a51.17,51.17,0,0,0,.11,6.64l-2-3-2.12-2.88a7.64,7.64,0,0,0,1.46-3.63A28.4,28.4,0,0,0,71,421a32.56,32.56,0,0,0-1.74-7.62,66,66,0,0,0-2.83-6.5.36.36,0,0,0-.66.22c.13,1.66.23,4.41.34,7.17s0,5.71.26,7.8a52.07,52.07,0,0,0,.84,6.62c-1.53-1.84-3-3.7-4.73-5.38a7.42,7.42,0,0,0,1-3.8,25.92,25.92,0,0,0-.63-6.71,19,19,0,0,0-1.16-3.55,35.39,35.39,0,0,0-1.78-3.81,46.38,46.38,0,0,0-4-6.05.36.36,0,0,0-.62.32c.21.81.47,1.87.78,3.09s.53,2.6.81,4c.58,2.73,1,5.65,1.47,7.72l.89,3.6a28,28,0,0,0,.89,2.85L57.5,418.5c-.88-.8-1.86-1.5-2.79-2.25a7.25,7.25,0,0,0,.4-3.91,24.65,24.65,0,0,0-1.72-6.57,29.86,29.86,0,0,0-1.76-3.36,39.12,39.12,0,0,0-2.5-3.46A40.91,40.91,0,0,0,44,393.63a.36.36,0,0,0-.56.42c.38.77.88,1.78,1.4,2.93l1.59,3.78c1,2.61,2.06,5.35,2.85,7.4.51,1.25,1,2.39,1.49,3.39a29.49,29.49,0,0,0,1.3,2.72l-2.18-1.48-2.26-1.34a3.19,3.19,0,0,0-.65-1.25,11.17,11.17,0,0,0-1.55-1.44A18.56,18.56,0,0,0,40.17,406a22.47,22.47,0,0,0-6.9-1.11,27.25,27.25,0,0,0-3.35.15q.69,1.31,1.41,2.61l1.24.51c2.08.86,4.19,1.91,5.89,2.51,3.54,1.28,6.75,2.12,8.26,1.86L49,413.83c.74.46,1.44,1,2.17,1.46a19.31,19.31,0,0,0-2.82-.11,27.8,27.8,0,0,0-3.34.46,16.27,16.27,0,0,0-3.19,1,26.51,26.51,0,0,0-3.31,1.6l-.41.25c.59.85,1.18,1.69,1.78,2.52l1.61-.28c1-.15,2.08-.33,3-.54,2.13-.47,4.17-.88,5.88-1.4a9.71,9.71,0,0,0,3.53-1.48c.9.72,1.83,1.39,2.68,2.16l2.56,2.32a21.2,21.2,0,0,0-2.8-.53,17.54,17.54,0,0,0-3.37-.12A25.16,25.16,0,0,0,46,422.56c-1.17.4-2.26.81-3.23,1.24l-.62.3c.37.48.75,1,1.13,1.43h2.07c1.07,0,2.14.07,3.24.07l3.13,0c2.15,0,4.34-.24,6.06-.43a9,9,0,0,0,3.72-.93c1.64,1.62,3.1,3.41,4.57,5.17a22.16,22.16,0,0,0-6-1.51,28.74,28.74,0,0,0-7.12.31,44.32,44.32,0,0,0-6,1.44.48.48,0,0,0-.14.09l.52.59,4.58.74c2.06.45,4.49.79,6.38,1.07a51.75,51.75,0,0,0,6.12.42,9.07,9.07,0,0,0,3.82-.44l2,2.78,1.92,2.88a22.25,22.25,0,0,0-5.86-2.19,29.39,29.39,0,0,0-7.17-.65,55.87,55.87,0,0,0-6.24.5c-.33.07-.53.49-.28.58,1.11.37,3,1,5.12,1.62a57.2,57.2,0,0,0,6.34,2,47.66,47.66,0,0,0,6.05,1.13,9.47,9.47,0,0,0,3.86-.07l1.75,3,1.61,3.06a21.92,21.92,0,0,0-5.6-2.78,31.18,31.18,0,0,0-7.08-1.38c-2-.2-3.91-.27-5.35-.27,1,.86,2,1.71,3,2.55l.68.3a63.68,63.68,0,0,0,6.11,2.57A48,48,0,0,0,75,449.42a9,9,0,0,0,3.83.34c1,2.08,1.84,4.23,2.68,6.37a22.81,22.81,0,0,0-5.25-3.37,30.1,30.1,0,0,0-6-1.94c2.63,1.84,5.35,3.61,8.16,5.28,1.89,1.13,3.75,2.17,5.6,3.13l-.09-.28a7.29,7.29,0,0,0,2.5-3,25.85,25.85,0,0,0,2.44-6.23,18.74,18.74,0,0,0,.5-2.58c-.85-2.09-1.69-4.33-2.46-6.5Z" style="fill:#000000"></path><path d="M91.44,451.79l-.3.65c-1.21,2.54-2.4,5.09-3.21,7.09l-.51,1.38c1.41.67,2.81,1.3,4.2,1.87.34-.69.67-1.43,1-2.21a28.44,28.44,0,0,0,1.23-4.42c-.67-1.12-1.34-2.34-2-3.62C91.68,452.29,91.56,452,91.44,451.79Z" style="fill:#000000"></path><path d="M134,452.39c.25-.24-.08-.65-.43-.52-3,1.09-9.79,4-13.45,6.88a30.27,30.27,0,0,0-5.32,5.15c.75-2.75,1.55-5.5,2.46-8.21,1.48.28,5.6-1.79,10-4.72a137.72,137.72,0,0,0,11.29-9.38c.26-.24,0-.67-.39-.55-1.53.49-4,1.35-6.67,2.43a45.49,45.49,0,0,0-7.23,3.68,31,31,0,0,0-5.69,4.77c.94-2.7,2-5.37,3-8,1.49.39,5.7-1.42,10.28-4.11a121.47,121.47,0,0,0,11.84-8.9c.27-.23,0-.68-.37-.58-1.55.44-4.11,1.2-6.8,2.17a48.44,48.44,0,0,0-7.44,3.31,33.73,33.73,0,0,0-6,4.42c1.16-2.61,2.28-5.25,3.53-7.82,1.45.46,5.77-1.09,10.49-3.6a69.39,69.39,0,0,0,6.69-4.34c2.26-1.59,4.31-3.13,5.54-4.06.29-.21,0-.66-.34-.58-3.15.68-10.36,2.62-14.47,4.83a34.82,34.82,0,0,0-6.19,4.15c1.28-2.56,2.54-5.14,3.9-7.66,1.42.53,5.83-.84,10.63-3.14,4.15-2,10-6.07,12.59-7.73.29-.19.05-.66-.32-.6-3.18.48-10.46,2.07-14.65,4.09a33.1,33.1,0,0,0-6.37,3.86c1.38-2.51,2.77-5,4.23-7.48,1.39.59,5.87-.57,10.76-2.6,4.21-1.8,10.28-5.43,12.9-6.9.3-.17.08-.64-.28-.61-1.59.14-4.19.47-7,1a44.47,44.47,0,0,0-7.82,2.18,31.24,31.24,0,0,0-6.54,3.53c1.47-2.45,3-4.86,4.59-7.26,1.38.69,5.88-.27,10.87-1.95,2.15-.72,4.77-1.93,7.2-3s4.62-2.06,5.93-2.64c.31-.12.13-.6-.23-.62a54.7,54.7,0,0,0-6.9.25A38.94,38.94,0,0,0,154,393a31.45,31.45,0,0,0-6.74,3.11c1.21-1.71,2.4-3.44,3.66-5.11,1.55-.24,4.68-3.27,8-7.15.72-.87,1.52-1.88,2.3-3s1.63-2.24,2.44-3.36A65.26,65.26,0,0,1,168,372a.36.36,0,0,0-.4-.58,35.28,35.28,0,0,0-6.32,3.68,39.72,39.72,0,0,0-3.42,2.73,31.76,31.76,0,0,0-2.78,2.82c-3.19,3.78-5,7.58-5.08,9.33-1.3,1.71-2.5,3.48-3.75,5.22a50.9,50.9,0,0,0,.85-7.32c.11-2.39,0-5.51-.1-8.52s-.19-5.89-.19-7.67a.37.37,0,0,0-.72-.08,71.55,71.55,0,0,0-2.45,7.45,43,43,0,0,0-1.48,8.5c-.28,5.51.65,10,1.75,11.11-1.54,2.37-3.07,4.73-4.52,7.15a50.69,50.69,0,0,0,.37-7.35c-.06-2.39-.36-5.45-.75-8.41s-.73-5.77-.95-7.48a.36.36,0,0,0-.7,0c-1,3.4-2.68,11.1-2.54,15.9.11,5.48,1.22,9.93,2.42,11-1.44,2.42-2.82,4.88-4.17,7.35a48.21,48.21,0,0,0,0-7.35c-.35-4.7-2-12.28-2.65-15.66a.36.36,0,0,0-.7,0c-.75,3.38-1.94,11.11-1.58,15.87.38,5.45,1.71,9.84,2.94,10.83-1.33,2.48-2.57,5-3.84,7.53a44.21,44.21,0,0,0-.31-7.34c-.55-4.68-2.59-12.15-3.43-15.47a.36.36,0,0,0-.7,0c-.25,1.69-.6,4.48-.82,7.42a49.14,49.14,0,0,0,0,8.44c.62,5.41,2.15,9.77,3.42,10.68-1.24,2.54-2.34,5.14-3.49,7.71a45.47,45.47,0,0,0-.66-7.32,73.5,73.5,0,0,0-2-8.18c-.79-2.83-1.63-5.5-2.14-7.13a.35.35,0,0,0-.69.07c-.35,3.39-.9,11.16-.09,15.92.85,5.4,2.65,9.68,4,10.51-1,2.62-2.08,5.25-3,7.92a53.66,53.66,0,0,0-1.1-7.29,82.27,82.27,0,0,0-2.41-8.1c-.19-.58-.39-1.15-.58-1.71.41-1.74.75-3.26,1-4.41.12-.53-.35-.94-.61-.53-.38.61-.84,1.36-1.35,2.22-.36-1-.68-1.93-.94-2.63a.36.36,0,0,0-.69.11c-.08,1.34-.16,3.35-.16,5.58-1.32,2.34-2.75,5-4,7.63-.14-.33-.26-.64-.37-.91a.36.36,0,0,0-.69.15c0,.8,0,1.84,0,3-.48,1.09-.91,2.16-1.27,3.16A65.4,65.4,0,0,0,101.39,458c-.39-4.47-.71-9-1-13.43,1.49-.39,4.42-5.71,7.18-12.77,2.37-6.1,5.06-16.67,6.31-21.26.13-.52-.33-.95-.6-.54-2.36,3.51-7.65,11.86-10,18A66.7,66.7,0,0,0,100,438.38q-.34-6.72-.56-13.45c1.51-.35,4.6-5.57,7.61-12.53,1.26-3,2.7-7.12,3.93-11,1.39-3.73,2.6-7.17,3.31-9.27.16-.47-.28-.9-.56-.55-1.26,1.55-3.33,4.18-5.45,7.24-.53.76-1.06,1.55-1.58,2.36s-1,1.67-1.43,2.5c-.92,1.67-1.76,3.32-2.43,4.82a67.34,67.34,0,0,0-3.55,10.23c-.08-4.48-.14-9-.1-13.46.75-.14,2-1.49,3.36-3.66a85.29,85.29,0,0,0,4.86-8.27c.37-.69.73-1.46,1.1-2.26l1.28-2.52c.87-1.74,1.73-3.57,2.54-5.35s1.7-3.5,2.45-5l1.9-3.87c.22-.45-.16-.94-.49-.61-1.45,1.4-3.83,3.79-6.33,6.6a67.68,67.68,0,0,0-6.35,8.87,23.27,23.27,0,0,0-1.36,2.61c-.4.86-.77,1.72-1.12,2.56-.69,1.67-1.28,3.26-1.73,4.69.24-4.47.29-8.95.92-13.39,1.58-.14,5.18-4.88,9.47-10.9,3.46-5.29,8.87-14.24,11.32-18,.27-.44-.06-1-.42-.68-1.6,1.27-4.23,3.41-7,5.95a73.35,73.35,0,0,0-7.32,8.14,67,67,0,0,0-5.34,9.32l1.14-6.61.58-3.31.75-3.27c.77,0,2.24-1.05,4.08-2.82s4.14-4.22,6.54-7c2-2.44,4.64-5.78,7-9l6.09-7.93c.32-.41.07-1-.34-.71-1.76,1.1-4.53,3-7.53,5.28a68.49,68.49,0,0,0-8.13,7.39,63.09,63.09,0,0,0-6.3,8.72l1.83-6.47.93-3.22,1.07-3.19c1.54.19,6.18-3.65,11.53-8.77,4.6-4.47,11.43-12.41,14.67-15.63.35-.37.13-.95-.28-.73a88.78,88.78,0,0,0-8,4.56c-1.56,1-3.21,2.08-4.7,3.21s-2.88,2.29-4.08,3.4a45.41,45.41,0,0,0-4,4.16c-1.19,1.37-2.25,2.7-3.13,3.91,1.21-3.05,2.28-6.15,3.61-9.16.85-.59,2.11-2.36,3.55-4.91s3.2-5.81,5.06-9.38c.79-1.59,1.63-3.46,2.54-5.4l1.32-3,1.37-3c1.79-4,3.52-7.69,4.67-9.91.26-.51-.17-.83-.57-.4a98.82,98.82,0,0,0-7,8.66l-1.95,2.75c-.62.94-1.22,1.89-1.82,2.81a55.78,55.78,0,0,0-3,5.31,69.54,69.54,0,0,0-3.93,9.4,23.21,23.21,0,0,0-1.28,6.14l-1,2.31-.9,2.34-1.81,4.69c.15-1.46.25-3.12.3-4.93s0-3.74.07-5.74c0-1.68-.09-3.57-.23-5.55s-.26-4-.39-6c-.34-4-.54-7.68-.73-10,0-.52-.65-.31-.79.27l-1.12,4.83c-.37,1.92-.76,4.07-1.12,6.25s-.59,4.46-.8,6.58a46.76,46.76,0,0,0-.26,5.83c.11,7.81,1.63,13.72,2.94,14.63L106.32,350c-.33,1-.61,2.12-.92,3.18l-1.81,6.36a90.16,90.16,0,0,0-.68-10.66c-.25-3.32-1-7.52-1.67-11.45s-1.27-7.64-1.65-9.87c-.07-.51-.68-.25-.78.34-.32,2.6-.92,6.82-1.18,11.26a74.06,74.06,0,0,0,.13,12.49,47.53,47.53,0,0,0,2,9.77c.83,2.51,1.68,4.12,2.38,4.51l-.74,3.23-.57,3.26-1.13,6.53a89.31,89.31,0,0,0-1.81-10.55c-.59-3.28-1.72-7.37-2.83-11.26s-1.94-7.46-2.55-9.68c-.14-.51-.7-.19-.73.41-.31,5.26-.37,17.12,1.29,23.84,1.58,7.66,4.43,13.15,5.87,13.76-.62,4.37-.68,8.8-.91,13.21-.32-1.43-.75-3-1.28-4.78-.26-.86-.54-1.76-.85-2.68s-.63-1.87-.9-2.82c-1-3.2-2.58-7.16-4.06-10.91s-2.72-7.25-3.56-9.41c-.19-.5-.72-.12-.68.49.1,1.31.22,3.05.36,5s.32,4.12.73,6.37.77,4.48,1.2,6.59c.23,1.05.43,2.06.7,3s.58,1.86.87,2.68a57.56,57.56,0,0,0,4,9.12c1.36,2.23,2.54,3.62,3.31,3.86,0,4.4,0,8.8.1,13.21a88.92,88.92,0,0,0-3.7-9.95c-.65-1.53-1.47-3.21-2.38-4.93l-1.4-2.61-1.36-2.69c-1.89-3.61-3.63-7-4.7-9-.24-.47-.72,0-.61.57.5,2.63,1.33,6.92,2.38,11.24a95.45,95.45,0,0,0,3.93,11.49c3.05,7,6.45,12,8,12.41.13,4.4.32,8.8.54,13.2a86.53,86.53,0,0,0-4-9.82c-2.88-6-8.37-14.44-10.78-18.17-.27-.42-.72,0-.58.58,1.24,4.87,4.44,15.79,7.35,21.81,3.3,6.88,6.85,11.76,8.4,12.12.29,4.4.6,8.79,1,13.18a92,92,0,0,0-4.34-9.68c-.29-.56-.61-1.15-1-1.75a54.92,54.92,0,0,1-.41,6.58c-.12,1.05-.29,2.11-.5,3.14,2.84,4.8,5.52,8,6.79,8.22,0,.54.12,1.08.17,1.62l1.39.4c-.07-.71-.15-1.42-.22-2.13,1.12-.34,3-3.51,4.87-8.11.12.48.23.94.36,1.36,1.56,5.35,3.94,9.32,5.39,9.94l-.21,1,1.34.16.18-.81c1.5.14,5.43-2.26,9.55-5.44C127,459.54,131.84,454.52,134,452.39Zm-20.45,11a54.19,54.19,0,0,0-1.64-7.21c-.59-2-1.55-4.57-2.54-7.06.57-1.82,1.13-3.85,1.68-5.93.1.63.21,1.24.34,1.8,1.17,5.39,3.21,9.52,4.59,10.28C115.12,457.94,114.33,460.65,113.59,463.38Z" style="fill:#000000"></path><path d="M94.38,445.81c-1.41-2.46-3.12-5.14-4.77-7.64.06,1.2.1,2.55.12,3.91-.06,1.74-.15,3.49-.37,5.09.69,1.68,1.39,3.25,2.08,4.62,1-2.29,2-4.43,2.63-5.77A.36.36,0,0,1,94.38,445.81Z" style="fill:#000000"></path></g><g id="freepik--Character--inject-458"><path d="M237.54,173.07s0,21.59-.55,23.77-21,6.66-21,6.66,14.71,11.65,37.66,11.1S287,198.48,287,198.48L274.5,195l-1.71-19.2S249.84,181.54,237.54,173.07Z" style="fill:#fff;stroke:#263238;stroke-linecap:round;stroke-linejoin:round"></path><path d="M217.4,200.65l6.07-4.72s9.78,5,27.31,5,26-2.69,29-5.39l3-2.7,9.78,3.71s-3,2.7-11.47,9.78-47.2,5.39-57.31,1.35S217.4,200.65,217.4,200.65Z" style="fill:#000000;stroke:#263238;stroke-linecap:round;stroke-linejoin:round"></path><path d="M267.33,182l-9.17-4.32c-6.93.19-14.92-.68-20.62-4.61,0,0,0,17-.38,22.34C263.36,195.37,267.33,182,267.33,182Z" style="fill:#263238;stroke:#263238;stroke-linecap:round;stroke-linejoin:round"></path><path d="M220.73,127.13c0,1.51,2.27,32.88,4.31,38.58,4.77,13.35,21.24,28.79,36.23,21.29,5.34-2.67,10.3-7.06,14.93-10.77,3.27-2.62,9.49-6.41,11-10.58s10.19-29.84,10.19-29.84-2.26-21.53-10.95-32.48-15.11-10.2-26.82-5.66S220,122.22,220,122.22Z" style="fill:#fff;stroke:#263238;stroke-linecap:round;stroke-linejoin:round"></path><path d="M234.37,131.54a19.47,19.47,0,0,1,11.41-7.09" style="fill:none;stroke:#263238;stroke-linecap:round;stroke-miterlimit:10;stroke-width:3px"></path><path d="M267.82,122.17s8.19,3.07,10.67,11.64" style="fill:none;stroke:#263238;stroke-linecap:round;stroke-miterlimit:10;stroke-width:3px"></path><path d="M255.08,167.55a2.16,2.16,0,1,1-4.28,0c0-1.36,1.07-1.51,2.26-1.51S255.08,166.19,255.08,167.55Z" style="fill:#263238;stroke:#263238;stroke-linecap:round;stroke-linejoin:round"></path><line x1="231.15" y1="141.84" x2="242.5" y2="140.51" style="fill:none;stroke:#263238;stroke-linecap:round;stroke-linejoin:round"></line><line x1="264.83" y1="141.27" x2="279.4" y2="143.92" style="fill:none;stroke:#263238;stroke-linecap:round;stroke-linejoin:round"></line><path d="M271,135.7c0,1.85-.9,3.36-2,3.36s-2-1.51-2-3.36.9-3.35,2-3.35S271,133.85,271,135.7Z" style="fill:#263238"></path><path d="M242.18,135c0,1.89-.94,3.43-2.11,3.43S238,136.84,238,135s.95-3.42,2.11-3.42S242.18,133.06,242.18,135Z" style="fill:#263238"></path><path d="M248.77,151.52a4.56,4.56,0,0,0,2.88,3.17c2.6,1.16,6.06,2.31,9.24-2.88" style="fill:none;stroke:#263238;stroke-linecap:round;stroke-linejoin:round"></path><path d="M327.23,126.12a1.16,1.16,0,0,0,0-.13A1.16,1.16,0,0,1,327.23,126.12Z" style="fill:none;stroke:#263238;stroke-linecap:round;stroke-linejoin:round"></path><path d="M322.33,139.21s1.51-1.13,3-4.53a30.73,30.73,0,0,0,1.88-8.56c-.06.5-.53,2.37-4.14,1.38-4.16-1.13-9.24-5.26-9.24-8.28s.93-26.46-6.25-35.15-17.37-9.82-23.41-6.42c0,0-12.85-11.33-23.8-12.84s-25.68,1.13-32.86,7.55S217.33,81.42,209.4,89a70.31,70.31,0,0,1-17,11.71,5.82,5.82,0,0,0,2.65,5.29,34.84,34.84,0,0,0,6.42,3,47.9,47.9,0,0,1-5.69,4,23.43,23.43,0,0,1-3.75,1.27l-2.65-.37s-.38,6,3,8.68,11.71,4.16,15.87-2.64a26.19,26.19,0,0,0-1.47,3.19l-8.43,9.75a12.68,12.68,0,0,1-10.44,4.67s.36,2.52,4,7.2,12.59,8.63,18.35,10.07a39,39,0,0,0,7.91,1.44s-.3-1.07-.61-2.79c2.13.77,3.6,1.28,3.6,1.28a50.7,50.7,0,0,1-.54-17.49c.24-1.71,2.43-4.36,3.22-5.59a30.29,30.29,0,0,1,13.79-10.79c7.31-2.48,13.83-2.16,20.86-5.34,3.64-1.65,13.25-6.53,13.25-11.46,0,0,3.78,15.1,10.2,24.17s12.46,24.17,12.46,24.17L292.12,166s4.53-2.64,18.13-8.69S328,144.5,329.13,141.48A19.45,19.45,0,0,1,331.4,137Z" style="fill:#263238;stroke:#263238;stroke-linecap:round;stroke-linejoin:round"></path><path d="M209.39,182.91s.82-38,1.64-42.08,6.29-7.11,6.29-7.11,7.65-7.65,9.56-8.47,3,1.1,2.19,3.28-6.29,10.38-6.29,10.38l-.27,11.48a47.55,47.55,0,0,1,9-5.19c4.64-1.91,15.3-4.65,16.12-4.37s-.55,3.28-3.28,5.19-9.56,4.1-10.38,4.92-6.56,7.1-6.56,7.1,9-3.28,11.75-4.64,10.38-6.83,10.66-3.83-5.2,6.56-8.2,8.74-12.84,6.84-12.84,8.48,0,12.84-1.64,18-3.56,7.1-7.65,9.56a111.72,111.72,0,0,1-10.39,5.2l-6.28-11.75S209.12,185.64,209.39,182.91Z" style="fill:#fff;stroke:#263238;stroke-linecap:round;stroke-linejoin:round"></path><path d="M217.32,133.72s-2.73,4.37-2.73,7.38.54,14.21.54,14.21" style="fill:none;stroke:#263238;stroke-linecap:round;stroke-linejoin:round"></path><path d="M319.55,381.18l-128.32-.35V453h1.54c19.24-5.53,40.79-10.37,66.63-10.42,26.2,0,46.34,1.22,63.8,1.48Z" style="fill:#263238;stroke:#263238;stroke-linecap:round;stroke-linejoin:round"></path><path d="M215.71,379.43c0,1.05-2.45,20.28-23.43,29" style="fill:none;stroke:#fff;stroke-linecap:round;stroke-linejoin:round"></path><path d="M316.71,411.52q1.21.41,2.49.78" style="fill:none;stroke:#fff;stroke-linecap:round;stroke-linejoin:round"></path><path d="M283.89,382.93s5.43,17.14,27.65,26.63" style="fill:none;stroke:#fff;stroke-linecap:round;stroke-linejoin:round"></path><polyline points="248.22 423.83 246.48 394.11 245.78 389.92 255.57 390.27 256.62 417.54" style="fill:none;stroke:#fff;stroke-linecap:round;stroke-linejoin:round"></polyline><line x1="266.33" y1="431.17" x2="234.24" y2="417.89" style="fill:none;stroke:#fff;stroke-linecap:round;stroke-linejoin:round"></line><line x1="274.8" y1="434.67" x2="271.21" y2="433.19" style="fill:none;stroke:#fff;stroke-linecap:round;stroke-linejoin:round"></line><line x1="254.17" y1="426.98" x2="254.17" y2="455.78" style="fill:none;stroke:#fff;stroke-linecap:round;stroke-linejoin:round"></line><path d="M188.44,369.64s-.35,9.79,1.39,12.94,18.89,11.88,60.84,11.88,67.48-8.74,70.63-11.18,3.49-2.45,3.49-4.55-.69-11.54-.69-11.54-36,8.74-82.17,5.25-54.19-7-54.19-7Z" style="fill:#000000;stroke:#263238;stroke-linecap:round;stroke-linejoin:round"></path><path d="M268.6,207.45c-7.73,2.42-16.43,1.54-24.39-.53-9.61-2.49-18.81-6.57-28.6-8.24-17.77-3-34.06,2.73-48.25,13.15a493.35,493.35,0,0,0-45.68,38c-3.42,3.22-7.05,7-7.08,11.71-.06,7.7,9.17,11.85,16.86,12.27,19.84,1.09,38.38-9,55.66-18.85a244.86,244.86,0,0,1-7.25,101.87c-1.14,3.93-2.3,8.43-.11,11.88,1.69,2.64,4.88,3.84,7.86,4.79a216.9,216.9,0,0,0,129.56.67c2.9-.91,6-2,7.65-4.6,1.86-2.91,1.21-6.7.5-10.07q-7.87-37.59-15.76-75.17c4.24,6.45,6,14.16,8.05,21.61s4.58,15.08,9.92,20.66,14.23,8.49,21,4.8c4.78-2.6,7.6-7.9,8.52-13.27s.22-10.85-.49-16.24Q352.31,269.41,348,237c-1.61-12.18-3.81-25.53-13.15-33.52-6.8-5.81-16.09-7.58-25-8.63-8-1-16.47-1.4-23.69,2.16-4.64,2.29-8.4,6.09-13,8.53A27.08,27.08,0,0,1,268.6,207.45Z" style="fill:#fff"></path><path d="M317.62,305.92c.25.91.51,1.83.78,2.75h38.94c-.18-2.28-.47-4.55-.76-6.8q-.66-4.94-1.3-9.87H313.43A144.85,144.85,0,0,1,317.62,305.92Z" style="fill:#000000"></path><path d="M125.8,246H349.23c-.4-3-.8-6-1.19-9.05-.33-2.51-.69-5.07-1.13-7.62h-202Q135.16,237.42,125.8,246Z" style="fill:#000000"></path><path d="M179.87,356.81c-1.14,3.93-2.3,8.43-.11,11.88a8.55,8.55,0,0,0,2.81,2.64H323.21a7.64,7.64,0,0,0,1.62-1.78c1.86-2.91,1.21-6.7.5-10.07l-1-4.81H180.46C180.26,355.38,180.08,356.1,179.87,356.81Z" style="fill:#000000"></path><path d="M273.26,205.49a27.08,27.08,0,0,1-4.66,2c-7.73,2.42-16.43,1.54-24.39-.53-9.61-2.49-18.81-6.57-28.6-8.24a56.88,56.88,0,0,0-6-.68h-7c-12.74.84-24.56,6-35.19,13.83-1.28.94-2.54,1.89-3.8,2.84H342.87A28.34,28.34,0,0,0,325.19,198H284.34C280.52,200.28,277.19,203.39,273.26,205.49Z" style="fill:#000000"></path><path d="M314.68,308.67q-1.76-8.34-3.5-16.67H189.45q-.1,8.34-.79,16.67Z" style="fill:#000000"></path><path d="M131.46,273.79c15.95.87,31-5.5,45.33-13.12H114.64a7.94,7.94,0,0,0,0,.85C114.54,269.22,123.77,273.37,131.46,273.79Z" style="fill:#000000"></path><path d="M187.85,260.67c.65,5.53,1.08,11.09,1.35,16.66H353.35l-2.19-16.66Z" style="fill:#000000"></path><path d="M324.89,323.33a27.44,27.44,0,0,0,2.65,3.25c5.34,5.58,14.23,8.49,21,4.8a16.27,16.27,0,0,0,7-8.05Z" style="fill:#000000"></path><path d="M187,323.33q-1.18,8.39-3,16.67H321.25q-1.75-8.34-3.5-16.67Z" style="fill:#000000"></path><g style="opacity:0.7000000000000001"><path d="M317.62,305.92c.25.91.51,1.83.78,2.75h38.94c-.18-2.28-.47-4.55-.76-6.8q-.66-4.94-1.3-9.87H313.43A144.85,144.85,0,0,1,317.62,305.92Z" style="fill:#fff"></path><path d="M125.8,246H349.23c-.4-3-.8-6-1.19-9.05-.33-2.51-.69-5.07-1.13-7.62h-202Q135.16,237.42,125.8,246Z" style="fill:#fff"></path><path d="M179.87,356.81c-1.14,3.93-2.3,8.43-.11,11.88a8.55,8.55,0,0,0,2.81,2.64H323.21a7.64,7.64,0,0,0,1.62-1.78c1.86-2.91,1.21-6.7.5-10.07l-1-4.81H180.46C180.26,355.38,180.08,356.1,179.87,356.81Z" style="fill:#fff"></path><path d="M273.26,205.49a27.08,27.08,0,0,1-4.66,2c-7.73,2.42-16.43,1.54-24.39-.53-9.61-2.49-18.81-6.57-28.6-8.24a56.88,56.88,0,0,0-6-.68h-7c-12.74.84-24.56,6-35.19,13.83-1.28.94-2.54,1.89-3.8,2.84H342.87A28.34,28.34,0,0,0,325.19,198H284.34C280.52,200.28,277.19,203.39,273.26,205.49Z" style="fill:#fff"></path><path d="M314.68,308.67q-1.76-8.34-3.5-16.67H189.45q-.1,8.34-.79,16.67Z" style="fill:#fff"></path><path d="M131.46,273.79c15.95.87,31-5.5,45.33-13.12H114.64a7.94,7.94,0,0,0,0,.85C114.54,269.22,123.77,273.37,131.46,273.79Z" style="fill:#fff"></path><path d="M187.85,260.67c.65,5.53,1.08,11.09,1.35,16.66H353.35l-2.19-16.66Z" style="fill:#fff"></path><path d="M324.89,323.33a27.44,27.44,0,0,0,2.65,3.25c5.34,5.58,14.23,8.49,21,4.8a16.27,16.27,0,0,0,7-8.05Z" style="fill:#fff"></path><path d="M187,323.33q-1.18,8.39-3,16.67H321.25q-1.75-8.34-3.5-16.67Z" style="fill:#fff"></path></g><polygon points="187.12 254.94 198 244 189 266 187.12 254.94" style="fill:#263238;stroke:#263238;stroke-linecap:round;stroke-linejoin:round"></polygon><path d="M263.23,360.84a113.09,113.09,0,0,1-11.66,6" style="fill:none;stroke:#263238;stroke-miterlimit:10"></path><path d="M307.48,324S290.86,342.76,269.3,357" style="fill:none;stroke:#263238;stroke-miterlimit:10"></path><path d="M227.34,364c-1.23.48-2.47,1-3.72,1.42" style="fill:none;stroke:#263238;stroke-miterlimit:10"></path><path d="M268.54,345.41s-16,8.36-35.94,16.46" style="fill:none;stroke:#263238;stroke-miterlimit:10"></path><line x1="200.66" y1="241.59" x2="206.65" y2="236.1" style="fill:none;stroke:#263238;stroke-miterlimit:10"></line><path d="M235.29,207.62s21.74,10.87,44,14.83" style="fill:none;stroke:#263238;stroke-miterlimit:10"></path><path d="M271.06,225q2.54.53,5.24,1" style="fill:none;stroke:#263238;stroke-miterlimit:10"></path><path d="M244.68,216a100.7,100.7,0,0,0,19.9,7.4" style="fill:none;stroke:#263238;stroke-miterlimit:10"></path><path d="M268.6,207.45c-7.73,2.42-16.43,1.54-24.39-.53-9.61-2.49-18.81-6.57-28.6-8.24-17.77-3-34.06,2.73-48.25,13.15a493.35,493.35,0,0,0-45.68,38c-3.42,3.22-7.05,7-7.08,11.71-.06,7.7,9.17,11.85,16.86,12.27,19.84,1.09,38.38-9,55.66-18.85a244.86,244.86,0,0,1-7.25,101.87c-1.14,3.93-2.3,8.43-.11,11.88,1.69,2.64,4.88,3.84,7.86,4.79a216.9,216.9,0,0,0,129.56.67c2.9-.91,6-2,7.65-4.6,1.86-2.91,1.21-6.7.5-10.07q-7.87-37.59-15.76-75.17c4.24,6.45,6,14.16,8.05,21.61s4.58,15.08,9.92,20.66,14.23,8.49,21,4.8c4.78-2.6,7.6-7.9,8.52-13.27s.22-10.85-.49-16.24Q352.31,269.41,348,237c-1.61-12.18-3.81-25.53-13.15-33.52-6.8-5.81-16.09-7.58-25-8.63-8-1-16.47-1.4-23.69,2.16-4.64,2.29-8.4,6.09-13,8.53A27.08,27.08,0,0,1,268.6,207.45Z" style="fill:none;stroke:#263238;stroke-miterlimit:10"></path><polygon points="202.5 185.5 215 206.67 198.33 218 188 192 202.5 185.5" style="fill:#000000;stroke:#263238;stroke-linecap:round;stroke-linejoin:round"></polygon><rect x="275.73" y="130.63" width="28.32" height="60.84" rx="4.55" transform="translate(49.89 -67.8) rotate(14.58)" style="fill:#000000;stroke:#263238;stroke-linecap:round;stroke-linejoin:round"></rect><path d="M308.58,139.9a2.45,2.45,0,1,1-1.75-3A2.44,2.44,0,0,1,308.58,139.9Z" style="fill:#fff;stroke:#263238;stroke-linecap:round;stroke-linejoin:round"></path><path d="M307.07,221.36l-7.41-16.84s8.76-24.91,7.75-29S296,156.72,295,155.37s-5.39-4.71-6.73-3.37.33,3.37,2,6.06,6.39,10.1,6.39,11.45,1,7.41,1,7.41-8.08-10.78-11.78-12.46-8.75-3.37-11.78-3.37-.34,3.37,1,4,7.74,3.71,8.41,4.72S293.94,184,293.94,184s-9.09-6.4-11.11-7.07-13.47,1-15.49,1,0,3,1,3,12.8,1,12.8,1l9.42,8.08s-10.77-3.71-12.12-3.71S271.38,188,269,188s-.34,2.69,4,2.35a49.75,49.75,0,0,1,7.74,0l7.07,6.4s-4.38,13.81-2.69,18.18,11.44,12.8,11.44,12.8Z" style="fill:#fff;stroke:#263238;stroke-linecap:round;stroke-linejoin:round"></path><polygon points="311.27 214.88 290.63 226.73 297.85 245.76 321.47 230.25 311.27 214.88" style="fill:#000000;stroke:#263238;stroke-linecap:round;stroke-linejoin:round"></polygon><path d="M312.49,314.77c-.27-1.06-.55-2.12-.86-3.2-3.37-11.47-8.53-22.22-12.63-33.43-2-5.56-4.06-11.14-5.89-16.78-.8-2.48-2.47-5.88-2.25-8.57.39-4.66,2.21-6.67,5.11-10.81s25.11-15.29,25.11-15.29,6-.32,8.8,3.29,28.53,66,30,74.49-3.44,27.2-17.68,32.84c-9.28,3.68-18.46-3.77-24.29-10.27C314.66,323.4,313.64,319.21,312.49,314.77Z" style="fill:#fff"></path><path d="M359.89,304.47q-.06-.35-.18-.81L316.36,325a17.18,17.18,0,0,0,1.56,2.06c3.3,3.68,7.68,7.67,12.54,9.76l25.33-12.45C359.53,317.24,360.72,309.22,359.89,304.47Z" style="fill:#000000"></path><path d="M333.71,237.8,292,258.32c.4,1.08.81,2.12,1.11,3,1.41,4.35,2.94,8.66,4.5,13l42.76-21C337.88,247.32,335.55,241.92,333.71,237.8Z" style="fill:#000000"></path><path d="M353.58,286.11c-1.86-4.85-4-10.24-6.18-15.71l-43.1,21.19c2.13,5.22,4.23,10.45,6,15.8Z" style="fill:#000000"></path><g style="opacity:0.7000000000000001"><path d="M359.89,304.47q-.06-.35-.18-.81L316.36,325a17.18,17.18,0,0,0,1.56,2.06c3.3,3.68,7.68,7.67,12.54,9.76l25.33-12.45C359.53,317.24,360.72,309.22,359.89,304.47Z" style="fill:#fff"></path><path d="M333.71,237.8,292,258.32c.4,1.08.81,2.12,1.11,3,1.41,4.35,2.94,8.66,4.5,13l42.76-21C337.88,247.32,335.55,241.92,333.71,237.8Z" style="fill:#fff"></path><path d="M353.58,286.11c-1.86-4.85-4-10.24-6.18-15.71l-43.1,21.19c2.13,5.22,4.23,10.45,6,15.8Z" style="fill:#fff"></path></g><path d="M312.49,314.77c-.27-1.06-.55-2.12-.86-3.2-3.37-11.47-8.53-22.22-12.63-33.43-2-5.56-4.06-11.14-5.89-16.78-.8-2.48-2.47-5.88-2.25-8.57.39-4.66,2.21-6.67,5.11-10.81s25.11-15.29,25.11-15.29,6-.32,8.8,3.29,28.53,66,30,74.49-3.44,27.2-17.68,32.84c-9.28,3.68-18.46-3.77-24.29-10.27C314.66,323.4,313.64,319.21,312.49,314.77Z" style="fill:none;stroke:#263238;stroke-miterlimit:10"></path><path d="M147,265.33s50.67-33.66,53-37.66,2-6.67,2-11.67-11.67-26.67-11.67-26.67-4.66-3.66-9-2.33-60.66,37.33-66.66,43.33-12.67,24-4.34,36.67S142,270.67,142,270.67" style="fill:#fff"></path><path d="M141.55,211.51c-5,3.26-9.75,6.44-13.89,9.26l24.13,41.36c3.43-2.3,8.39-5.63,13.84-9.35Z" style="fill:#000000"></path><path d="M113.13,232.12a36.92,36.92,0,0,0-6.7,21.59l10.94,18.74c6.25,2.31,14.08,1.13,19.21-.14Z" style="fill:#000000"></path><path d="M171.07,192.79c-4,2.46-8.94,5.51-14.15,8.82l23.8,40.78c5.22-3.66,10.05-7.12,13.58-9.8Z" style="fill:#000000"></path><g style="opacity:0.7000000000000001"><path d="M141.55,211.51c-5,3.26-9.75,6.44-13.89,9.26l24.13,41.36c3.43-2.3,8.39-5.63,13.84-9.35Z" style="fill:#fff"></path><path d="M113.13,232.12a36.92,36.92,0,0,0-6.7,21.59l10.94,18.74c6.25,2.31,14.08,1.13,19.21-.14Z" style="fill:#fff"></path><path d="M171.07,192.79c-4,2.46-8.94,5.51-14.15,8.82l23.8,40.78c5.22-3.66,10.05-7.12,13.58-9.8Z" style="fill:#fff"></path></g><path d="M147,265.33s50.67-33.66,53-37.66,2-6.67,2-11.67-11.67-26.67-11.67-26.67-4.66-3.66-9-2.33-60.66,37.33-66.66,43.33-12.67,24-4.34,36.67S142,270.67,142,270.67" style="fill:none;stroke:#263238;stroke-miterlimit:10"></path></g></svg>